<svg width="135" height="40" viewBox="0 0 135 40" fill="none" xmlns="http://www.w3.org/2000/svg">
<rect width="135" height="40" rx="6" fill="black"/>
<g clip-path="url(#clip0)">
<path d="M32.7973 21.3007C32.8081 20.4661 33.0298 19.6477 33.4418 18.9218C33.8538 18.1958 34.4428 17.5859 35.1539 17.1487C34.7021 16.5035 34.1062 15.9726 33.4134 15.598C32.7205 15.2235 31.9499 15.0156 31.1627 14.991C29.4835 14.8148 27.8555 15.9958 26.9998 15.9958C26.1275 15.9958 24.81 15.0085 23.3913 15.0377C22.4736 15.0673 21.5793 15.3342 20.7954 15.8123C20.0115 16.2903 19.3649 16.9633 18.9184 17.7656C16.9844 21.114 18.427 26.035 20.2796 28.7416C21.2065 30.067 22.2898 31.5474 23.7072 31.4949C25.0943 31.4374 25.6123 30.6104 27.2866 30.6104C28.9454 30.6104 29.4314 31.4949 30.8776 31.4615C32.366 31.4374 33.3038 30.1303 34.1981 28.7924C34.8641 27.848 35.3766 26.8043 35.7166 25.6999C34.8518 25.3342 34.1139 24.722 33.5948 23.9397C33.0757 23.1574 32.7983 22.2396 32.7973 21.3007Z" fill="white"/>
<path d="M30.0657 13.2109C30.8772 12.2367 31.277 10.9845 31.1802 9.72028C29.9404 9.8505 28.7951 10.4431 27.9726 11.3799C27.5705 11.8375 27.2625 12.37 27.0663 12.9468C26.87 13.5235 26.7894 14.1333 26.8289 14.7413C27.4491 14.7477 28.0626 14.6132 28.6232 14.3482C29.1839 14.0831 29.6771 13.6942 30.0657 13.2109Z" fill="white"/>
</g>
<path d="M43.3332 33H45.3989L46.2152 30.4012H50.9464L51.771 33H53.8368L50.0551 21.0054H47.1148L43.3332 33ZM46.8066 28.527L48.5641 22.9462L50.3467 28.527H46.8066ZM55.3261 36.9982H57.3501V32.5419C57.6556 32.764 57.9998 32.9361 58.383 33.0583C58.7717 33.186 59.1993 33.2499 59.6658 33.2499C60.4987 33.2499 61.2206 33.0416 61.8314 32.6252C62.4478 32.2087 62.9254 31.6423 63.2641 30.9259C63.6029 30.2096 63.7722 29.4016 63.7722 28.502C63.7722 27.5913 63.6001 26.7778 63.2558 26.0615C62.9171 25.3451 62.4339 24.7815 61.8064 24.3706C61.179 23.9597 60.4404 23.7542 59.5908 23.7542C59.0799 23.7542 58.6162 23.8319 58.1997 23.9874C57.7833 24.1429 57.4168 24.365 57.1002 24.6538V24.0041H55.3261V36.9982ZM59.3576 31.4507C58.5524 31.4507 57.9749 31.1786 57.625 30.6344C57.2752 30.0847 57.1002 29.3739 57.1002 28.502C57.1002 27.6247 57.2724 26.9139 57.6167 26.3697C57.9665 25.8255 58.5246 25.5534 59.2909 25.5534C59.8296 25.5534 60.271 25.6866 60.6153 25.9532C60.9652 26.2142 61.2234 26.5696 61.39 27.0194C61.5621 27.4636 61.6482 27.9578 61.6482 28.502C61.6482 29.0518 61.5649 29.5488 61.3983 29.993C61.2373 30.4373 60.9874 30.7927 60.6486 31.0592C60.3099 31.3202 59.8795 31.4507 59.3576 31.4507ZM65.5916 36.9982H67.6157V32.5419C67.9211 32.764 68.2654 32.9361 68.6485 33.0583C69.0372 33.186 69.4648 33.2499 69.9313 33.2499C70.7642 33.2499 71.4861 33.0416 72.097 32.6252C72.7134 32.2087 73.1909 31.6423 73.5296 30.9259C73.8684 30.2096 74.0378 29.4016 74.0378 28.502C74.0378 27.5913 73.8656 26.7778 73.5213 26.0615C73.1826 25.3451 72.6995 24.7815 72.072 24.3706C71.4445 23.9597 70.7059 23.7542 69.8563 23.7542C69.3454 23.7542 68.8818 23.8319 68.4653 23.9874C68.0488 24.1429 67.6823 24.365 67.3658 24.6538V24.0041H65.5916V36.9982ZM69.6231 31.4507C68.8179 31.4507 68.2404 31.1786 67.8905 30.6344C67.5407 30.0847 67.3658 29.3739 67.3658 28.502C67.3658 27.6247 67.5379 26.9139 67.8822 26.3697C68.232 25.8255 68.7901 25.5534 69.5564 25.5534C70.0951 25.5534 70.5366 25.6866 70.8808 25.9532C71.2307 26.2142 71.4889 26.5696 71.6555 27.0194C71.8276 27.4636 71.9137 27.9578 71.9137 28.502C71.9137 29.0518 71.8304 29.5488 71.6638 29.993C71.5028 30.4373 71.2529 30.7927 70.9142 31.0592C70.5754 31.3202 70.1451 31.4507 69.6231 31.4507ZM83.6485 33.2499C84.4703 33.2499 85.2394 33.1111 85.9558 32.8334C86.6721 32.5558 87.2496 32.1393 87.6883 31.584C88.1326 31.0287 88.3547 30.3373 88.3547 29.5099C88.3547 28.9157 88.2436 28.4243 88.0215 28.0356C87.8049 27.6413 87.5245 27.3248 87.1802 27.086C86.8415 26.8472 86.4889 26.6612 86.1224 26.5279C85.7614 26.3947 85.4338 26.2892 85.1395 26.2114L82.9905 25.6117C82.7239 25.5395 82.4574 25.4506 82.1908 25.3451C81.9243 25.2341 81.7022 25.0869 81.5245 24.9037C81.3468 24.7149 81.2579 24.4733 81.2579 24.179C81.2579 23.868 81.3606 23.5959 81.5661 23.3627C81.7771 23.1295 82.052 22.949 82.3907 22.8213C82.735 22.6936 83.1071 22.6353 83.5069 22.6464C84.1233 22.663 84.6786 22.8435 85.1728 23.1878C85.667 23.5321 85.978 24.0207 86.1057 24.6538L88.2631 24.279C87.9965 23.1683 87.4496 22.3104 86.6221 21.7051C85.7947 21.0943 84.7647 20.7833 83.5319 20.7722C82.7211 20.7667 81.9826 20.8972 81.3162 21.1637C80.6554 21.4247 80.1279 21.8162 79.7336 22.3382C79.3449 22.8602 79.1505 23.5071 79.1505 24.279C79.1505 24.8065 79.2366 25.2507 79.4088 25.6117C79.5865 25.9671 79.8113 26.2586 80.0834 26.4863C80.3611 26.714 80.6526 26.8944 80.9581 27.0277C81.269 27.161 81.5578 27.2665 81.8243 27.3442L84.9229 28.2605C85.8114 28.527 86.2556 28.9879 86.2556 29.6432C86.2556 30.0097 86.1363 30.3234 85.8975 30.5844C85.6642 30.8399 85.3588 31.0342 84.9812 31.1675C84.6036 31.3008 84.201 31.3674 83.7734 31.3674C83.0515 31.3674 82.4129 31.1731 81.8576 30.7843C81.3079 30.3956 80.9442 29.8459 80.7665 29.1351L78.6841 29.4516C78.8118 30.2346 79.1006 30.9121 79.5504 31.484C80.0057 32.0504 80.5832 32.4863 81.2829 32.7918C81.9881 33.0972 82.7767 33.2499 83.6485 33.2499ZM95.4303 33V31.3174C94.8694 31.4007 94.3696 31.4229 93.9309 31.3841C93.4923 31.3452 93.173 31.1592 92.973 30.826C92.8675 30.6538 92.8092 30.4317 92.7981 30.1596C92.7926 29.882 92.7898 29.5654 92.7898 29.2101V25.5784H95.4303V24.0041H92.7898V21.5052H90.7907V24.0041H89.1581V25.5784H90.7907V29.3267C90.7907 29.8431 90.7963 30.304 90.8074 30.7094C90.8185 31.1092 90.9267 31.5035 91.1322 31.8922C91.3654 32.3198 91.707 32.6335 92.1567 32.8334C92.6065 33.0278 93.1146 33.1305 93.6811 33.1416C94.253 33.1583 94.8361 33.1111 95.4303 33ZM100.882 33.2499C101.782 33.2499 102.568 33.05 103.24 32.6502C103.912 32.2448 104.434 31.6867 104.806 30.9759C105.183 30.2596 105.372 29.4349 105.372 28.502C105.372 27.5747 105.186 26.7556 104.814 26.0448C104.442 25.3285 103.92 24.7676 103.248 24.3622C102.576 23.9569 101.787 23.7542 100.882 23.7542C99.9994 23.7542 99.222 23.9541 98.5501 24.3539C97.8782 24.7537 97.3534 25.309 96.9758 26.0198C96.5982 26.7306 96.4094 27.558 96.4094 28.502C96.4094 29.4294 96.5926 30.2512 96.9591 30.9676C97.3312 31.6784 97.8532 32.2365 98.5251 32.6418C99.197 33.0472 99.9828 33.2499 100.882 33.2499ZM100.882 31.3674C100.11 31.3674 99.5246 31.1092 99.1248 30.5928C98.7305 30.0708 98.5334 29.3739 98.5334 28.502C98.5334 27.6524 98.7222 26.9638 99.0998 26.4363C99.483 25.9032 100.077 25.6367 100.882 25.6367C101.671 25.6367 102.262 25.8977 102.657 26.4197C103.051 26.9361 103.248 27.6302 103.248 28.502C103.248 29.3461 103.051 30.0347 102.657 30.5678C102.268 31.1009 101.676 31.3674 100.882 31.3674ZM107.207 33H109.223V28.4271C109.223 27.9051 109.317 27.4414 109.506 27.036C109.701 26.6307 110.003 26.3169 110.414 26.0948C110.692 25.9338 111.003 25.8394 111.347 25.8116C111.691 25.7783 111.999 25.8005 112.272 25.8782V24.0041C111.866 23.943 111.45 23.9513 111.022 24.0291C110.595 24.1013 110.214 24.2512 109.881 24.4789C109.692 24.5955 109.523 24.7371 109.373 24.9037C109.223 25.0647 109.092 25.2452 108.981 25.4451V24.0041H107.207V33ZM117.788 33.2499C118.654 33.2499 119.446 33.0278 120.162 32.5835C120.884 32.1337 121.417 31.5007 121.761 30.6844L119.779 30.0847C119.379 30.9398 118.677 31.3674 117.672 31.3674C116.989 31.3674 116.45 31.1703 116.056 30.776C115.661 30.3762 115.425 29.8042 115.348 29.0601H121.861C121.939 27.9773 121.82 27.0388 121.503 26.2447C121.187 25.4506 120.701 24.837 120.046 24.4039C119.396 23.9708 118.605 23.7542 117.672 23.7542C116.789 23.7542 116.011 23.9541 115.339 24.3539C114.667 24.7482 114.143 25.309 113.765 26.0365C113.387 26.7639 113.199 27.6191 113.199 28.602C113.199 29.5127 113.39 30.3179 113.773 31.0176C114.162 31.7172 114.701 32.2642 115.389 32.6585C116.078 33.0528 116.878 33.2499 117.788 33.2499ZM117.755 25.5117C118.377 25.5117 118.854 25.6755 119.188 26.0032C119.526 26.3252 119.74 26.8389 119.829 27.5441H115.398C115.636 26.1892 116.422 25.5117 117.755 25.5117Z" fill="white"/>
<path d="M43.6766 15H45.8951C45.9499 15 46.0642 14.9984 46.2382 14.9952C46.4155 14.9919 46.583 14.9807 46.7409 14.9613C47.2951 14.8904 47.7623 14.6955 48.1425 14.3765C48.5227 14.0543 48.8111 13.6451 49.0077 13.1489C49.2042 12.6527 49.3025 12.1097 49.3025 11.5201C49.3025 10.9304 49.2042 10.3875 49.0077 9.89131C48.8111 9.3951 48.5227 8.98589 48.1425 8.66368C47.7623 8.34146 47.2951 8.14652 46.7409 8.07886C46.5798 8.05953 46.4122 8.04825 46.2382 8.04503C46.0675 8.0418 45.9531 8.04019 45.8951 8.04019H43.6766V15ZM44.8608 13.9029V9.13733H45.8951C45.9918 9.13733 46.1142 9.14055 46.2624 9.147C46.4106 9.15022 46.5443 9.16472 46.6636 9.19049C46.9858 9.25171 47.25 9.3951 47.4562 9.62065C47.6624 9.8462 47.8155 10.1249 47.9154 10.4568C48.0185 10.7855 48.07 11.1399 48.07 11.5201C48.07 11.8842 48.0217 12.2322 47.925 12.5641C47.8284 12.8959 47.6753 13.1779 47.4659 13.4099C47.2597 13.6386 46.9922 13.7853 46.6636 13.8497C46.5443 13.8723 46.4106 13.8868 46.2624 13.8932C46.1142 13.8996 45.9918 13.9029 45.8951 13.9029H44.8608ZM52.7505 15.145C53.2724 15.145 53.7284 15.029 54.1182 14.797C54.5081 14.5618 54.811 14.238 55.0269 13.8255C55.246 13.4099 55.3555 12.9314 55.3555 12.3901C55.3555 11.852 55.2476 11.3767 55.0317 10.9643C54.8158 10.5486 54.513 10.2232 54.1231 9.98797C53.7332 9.75276 53.2757 9.63515 52.7505 9.63515C52.2381 9.63515 51.787 9.75115 51.3972 9.98314C51.0073 10.2151 50.7028 10.5373 50.4837 10.9498C50.2646 11.3622 50.155 11.8423 50.155 12.3901C50.155 12.9282 50.2614 13.405 50.474 13.8207C50.6899 14.2331 50.9928 14.557 51.3827 14.7922C51.7725 15.0274 52.2285 15.145 52.7505 15.145ZM52.7505 14.0527C52.3026 14.0527 51.9626 13.9029 51.7306 13.6032C51.5019 13.3003 51.3875 12.8959 51.3875 12.3901C51.3875 11.8971 51.497 11.4975 51.7161 11.1914C51.9385 10.8821 52.2832 10.7275 52.7505 10.7275C53.208 10.7275 53.5512 10.8789 53.7799 11.1818C54.0087 11.4814 54.1231 11.8842 54.1231 12.3901C54.1231 12.8798 54.0087 13.2794 53.7799 13.5887C53.5544 13.898 53.2112 14.0527 52.7505 14.0527ZM57.3433 15H58.2519L59.4312 11.4089L60.6153 15H61.524L63.1189 9.78014H61.9783L60.9537 13.1296L59.9242 9.78014H58.9431L57.9088 13.1296L56.889 9.78014L55.7483 9.77048L57.3433 15ZM63.9815 15H65.1608V12.3176C65.1608 11.8955 65.2204 11.57 65.3397 11.3413C65.4621 11.1093 65.6168 10.9498 65.8036 10.8628C65.9937 10.7726 66.1871 10.7275 66.3836 10.7275C66.6607 10.7275 66.8814 10.7887 67.0458 10.9111C67.2101 11.0303 67.3309 11.1834 67.4083 11.3703C67.4888 11.5539 67.5404 11.7456 67.5629 11.9454C67.5887 12.1452 67.6016 12.3256 67.6016 12.4867V15H68.7809V12.0856C68.7809 11.9631 68.7696 11.8004 68.7471 11.5974C68.7277 11.3944 68.6826 11.1802 68.6117 10.9546C68.5408 10.7291 68.4313 10.5164 68.2831 10.3166C68.1349 10.1136 67.9335 9.94931 67.6789 9.82364C67.4276 9.69476 67.1102 9.63032 66.7268 9.63032C66.3498 9.63032 66.0179 9.69637 65.7311 9.82848C65.4476 9.95736 65.2108 10.1346 65.0207 10.3601V9.78014H63.9815V15ZM72.2626 15.145C72.7846 15.145 73.2405 15.029 73.6304 14.797C74.0203 14.5618 74.3232 14.238 74.539 13.8255C74.7581 13.4099 74.8677 12.9314 74.8677 12.3901C74.8677 11.852 74.7598 11.3767 74.5439 10.9643C74.328 10.5486 74.0251 10.2232 73.6352 9.98797C73.2454 9.75276 72.7878 9.63515 72.2626 9.63515C71.7503 9.63515 71.2992 9.75115 70.9093 9.98314C70.5194 10.2151 70.2149 10.5373 69.9958 10.9498C69.7767 11.3622 69.6672 11.8423 69.6672 12.3901C69.6672 12.9282 69.7735 13.405 69.9862 13.8207C70.202 14.2331 70.5049 14.557 70.8948 14.7922C71.2847 15.0274 71.7406 15.145 72.2626 15.145ZM72.2626 14.0527C71.8147 14.0527 71.4748 13.9029 71.2428 13.6032C71.014 13.3003 70.8996 12.8959 70.8996 12.3901C70.8996 11.8971 71.0092 11.4975 71.2283 11.1914C71.4506 10.8821 71.7954 10.7275 72.2626 10.7275C72.7201 10.7275 73.0633 10.8789 73.2921 11.1818C73.5208 11.4814 73.6352 11.8842 73.6352 12.3901C73.6352 12.8798 73.5208 13.2794 73.2921 13.5887C73.0665 13.898 72.7234 14.0527 72.2626 14.0527ZM77.3922 15.145C77.8079 15.145 78.1607 15.0773 78.4507 14.942C78.7439 14.8034 79.0017 14.5892 79.224 14.2992V15H80.2438V11.7956C80.2438 11.57 80.2341 11.3622 80.2148 11.1721C80.1955 10.9788 80.1391 10.7903 80.0456 10.6066C79.8749 10.2619 79.6123 10.0137 79.2578 9.86231C78.9066 9.71087 78.499 9.63515 78.035 9.63515C77.4228 9.63515 76.9347 9.76887 76.5706 10.0363C76.2065 10.3037 75.96 10.6582 75.8311 11.0996L76.8944 11.4331C76.9814 11.1657 77.1344 10.9772 77.3535 10.8676C77.5727 10.7581 77.7998 10.7033 78.035 10.7033C78.3895 10.7033 78.6505 10.7758 78.818 10.9208C78.9856 11.0626 79.0806 11.2833 79.1032 11.5829C78.6456 11.6506 78.2203 11.7166 77.8272 11.7811C77.4373 11.8423 77.1054 11.918 76.8316 12.0082C76.4191 12.15 76.1179 12.3514 75.9278 12.6124C75.7376 12.8702 75.6426 13.1892 75.6426 13.5694C75.6426 13.8561 75.7086 14.1187 75.8408 14.3572C75.9761 14.5956 76.1742 14.7873 76.4352 14.9323C76.6962 15.0741 77.0152 15.145 77.3922 15.145ZM77.6242 14.217C77.3503 14.217 77.1409 14.1542 76.9959 14.0285C76.8541 13.9029 76.7832 13.745 76.7832 13.5549C76.7832 13.3841 76.838 13.2455 76.9476 13.1392C77.0603 13.0329 77.2166 12.9427 77.4164 12.8686C77.6 12.8073 77.8208 12.7542 78.0785 12.7091C78.3363 12.6607 78.673 12.6043 79.0887 12.5399C79.0854 12.6623 79.0774 12.7993 79.0645 12.9507C79.0516 13.0989 79.021 13.2327 78.9727 13.3519C78.934 13.4711 78.8583 13.5984 78.7455 13.7337C78.636 13.869 78.4877 13.9834 78.3009 14.0769C78.114 14.1703 77.8884 14.217 77.6242 14.217ZM83.5949 15.145C83.9042 15.145 84.1829 15.0983 84.431 15.0048C84.6791 14.9114 84.8966 14.7809 85.0835 14.6133V15H86.113V8.04019H84.9385V10.0363C84.7645 9.90742 84.5696 9.80914 84.3537 9.74148C84.1378 9.67059 83.8994 9.63515 83.6384 9.63515C83.1454 9.63515 82.7168 9.75437 82.3527 9.99281C81.9919 10.2312 81.7115 10.5583 81.5118 10.9739C81.312 11.3896 81.2121 11.8616 81.2121 12.3901C81.2121 12.9121 81.3104 13.3809 81.5069 13.7965C81.7035 14.2122 81.9806 14.5408 82.3382 14.7825C82.6959 15.0242 83.1148 15.145 83.5949 15.145ZM83.7737 14.101C83.4708 14.101 83.2211 14.0253 83.0246 13.8739C82.828 13.7192 82.6814 13.513 82.5847 13.2552C82.4913 12.9974 82.4446 12.7091 82.4446 12.3901C82.4446 12.0743 82.4929 11.7875 82.5896 11.5298C82.6895 11.2688 82.8393 11.0626 83.0391 10.9111C83.242 10.7565 83.4998 10.6791 83.8124 10.6791C84.257 10.6791 84.5792 10.837 84.779 11.1528C84.982 11.4685 85.0835 11.881 85.0835 12.3901C85.0835 12.8959 84.982 13.3084 84.779 13.6274C84.5792 13.9431 84.2441 14.101 83.7737 14.101ZM91.7087 15.145C92.2307 15.145 92.6866 15.029 93.0765 14.797C93.4664 14.5618 93.7692 14.238 93.9851 13.8255C94.2042 13.4099 94.3138 12.9314 94.3138 12.3901C94.3138 11.852 94.2058 11.3767 93.9899 10.9643C93.7741 10.5486 93.4712 10.2232 93.0813 9.98797C92.6914 9.75276 92.2339 9.63515 91.7087 9.63515C91.1964 9.63515 90.7453 9.75115 90.3554 9.98314C89.9655 10.2151 89.661 10.5373 89.4419 10.9498C89.2228 11.3622 89.1132 11.8423 89.1132 12.3901C89.1132 12.9282 89.2196 13.405 89.4322 13.8207C89.6481 14.2331 89.951 14.557 90.3409 14.7922C90.7308 15.0274 91.1867 15.145 91.7087 15.145ZM91.7087 14.0527C91.2608 14.0527 90.9209 13.9029 90.6889 13.6032C90.4601 13.3003 90.3457 12.8959 90.3457 12.3901C90.3457 11.8971 90.4553 11.4975 90.6744 11.1914C90.8967 10.8821 91.2415 10.7275 91.7087 10.7275C92.1662 10.7275 92.5094 10.8789 92.7381 11.1818C92.9669 11.4814 93.0813 11.8842 93.0813 12.3901C93.0813 12.8798 92.9669 13.2794 92.7381 13.5887C92.5126 13.898 92.1694 14.0527 91.7087 14.0527ZM95.369 15H96.5483V12.3176C96.5483 11.8955 96.6079 11.57 96.7271 11.3413C96.8496 11.1093 97.0042 10.9498 97.1911 10.8628C97.3812 10.7726 97.5745 10.7275 97.7711 10.7275C98.0482 10.7275 98.2689 10.7887 98.4332 10.9111C98.5976 11.0303 98.7184 11.1834 98.7957 11.3703C98.8763 11.5539 98.9278 11.7456 98.9504 11.9454C98.9762 12.1452 98.9891 12.3256 98.9891 12.4867V15H100.168V12.0856C100.168 11.9631 100.157 11.8004 100.135 11.5974C100.115 11.3944 100.07 11.1802 99.9992 10.9546C99.9283 10.7291 99.8188 10.5164 99.6705 10.3166C99.5223 10.1136 99.3209 9.94931 99.0664 9.82364C98.8151 9.69476 98.4977 9.63032 98.1143 9.63032C97.7373 9.63032 97.4054 9.69637 97.1186 9.82848C96.8351 9.95736 96.5982 10.1346 96.4081 10.3601V9.78014H95.369V15ZM106.424 15V14.0237C106.099 14.072 105.809 14.0849 105.554 14.0624C105.3 14.0398 105.114 13.9319 104.998 13.7385C104.937 13.6386 104.903 13.5098 104.897 13.3519C104.894 13.1908 104.892 13.0071 104.892 12.8009V10.6936H106.424V9.78014H104.892V8.33018H103.732V9.78014H102.785V10.6936H103.732V12.8686C103.732 13.1682 103.735 13.4357 103.742 13.6709C103.748 13.9029 103.811 14.1316 103.93 14.3572C104.066 14.6053 104.264 14.7873 104.525 14.9033C104.786 15.0161 105.081 15.0757 105.409 15.0822C105.741 15.0918 106.079 15.0644 106.424 15ZM107.537 15H108.716V12.3176C108.716 11.8955 108.776 11.57 108.895 11.3413C109.018 11.1093 109.172 10.9498 109.359 10.8628C109.549 10.7726 109.743 10.7275 109.939 10.7275C110.216 10.7275 110.437 10.7887 110.601 10.9111C110.766 11.0303 110.886 11.1834 110.964 11.3703C111.044 11.5539 111.096 11.7456 111.118 11.9454C111.144 12.1452 111.157 12.3256 111.157 12.4867V15H112.336V12.0856C112.336 11.9631 112.325 11.8004 112.302 11.5974C112.283 11.3944 112.238 11.1802 112.167 10.9546C112.096 10.7291 111.987 10.5164 111.839 10.3166C111.69 10.1136 111.489 9.94931 111.234 9.82364C110.983 9.69476 110.666 9.63032 110.282 9.63032C109.905 9.63032 109.573 9.69637 109.287 9.82848C109.003 9.95736 108.766 10.1346 108.576 10.3601V8.04019H107.537V15ZM115.971 15.145C116.473 15.145 116.932 15.0161 117.348 14.7583C117.767 14.4973 118.076 14.13 118.276 13.6564L117.126 13.3084C116.894 13.8046 116.486 14.0527 115.903 14.0527C115.507 14.0527 115.194 13.9383 114.965 13.7095C114.737 13.4775 114.6 13.1457 114.555 12.7139H118.334C118.379 12.0856 118.31 11.541 118.126 11.0803C117.943 10.6195 117.661 10.2635 117.28 10.0121C116.903 9.76081 116.444 9.63515 115.903 9.63515C115.391 9.63515 114.94 9.75115 114.55 9.98314C114.16 10.2119 113.855 10.5373 113.636 10.9594C113.417 11.3815 113.308 11.8778 113.308 12.4481C113.308 12.9765 113.419 13.4437 113.641 13.8497C113.867 14.2557 114.179 14.5731 114.579 14.8018C114.978 15.0306 115.442 15.145 115.971 15.145ZM115.951 10.655C116.312 10.655 116.589 10.75 116.783 10.9401C116.979 11.127 117.103 11.425 117.155 11.8343H114.584C114.722 11.0481 115.178 10.655 115.951 10.655Z" fill="white"/>
<defs>
<clipPath id="clip0">
<rect width="18" height="23" fill="white" transform="translate(18 9)"/>
</clipPath>
</defs>
</svg>
