<svg width="135" height="40" viewBox="0 0 135 40" fill="none" xmlns="http://www.w3.org/2000/svg">
<rect width="135" height="40" rx="6" fill="black"/>
<path d="M13.4353 7.53812C13.1074 7.93019 12.9418 8.43281 12.9725 8.94302V31.0591C12.9417 31.5693 13.1073 32.072 13.4353 32.464L13.5093 32.5361L25.8983 20.1472V19.8549L13.5093 7.46552L13.4353 7.53812Z" fill="url(#paint0_linear)"/>
<path d="M30.0277 24.2786L25.8983 20.1472V19.8549L30.0287 15.7245L30.1218 15.7776L35.0146 18.5577C36.4122 19.3517 36.4122 20.6509 35.0146 21.4454L30.1218 24.2255L30.0277 24.2786Z" fill="url(#paint1_linear)"/>
<path d="M30.1218 24.225L25.8983 20.0011L13.4353 32.464C13.7201 32.7152 14.0837 32.8588 14.4633 32.87C14.8428 32.8812 15.2143 32.7593 15.5134 32.5254L30.1218 24.225Z" fill="url(#paint2_linear)"/>
<path d="M30.1218 15.7771L15.5134 7.47672C15.2143 7.24281 14.8428 7.1209 14.4633 7.13212C14.0837 7.14333 13.7201 7.28696 13.4353 7.53812L25.8983 20.0011L30.1218 15.7771Z" fill="url(#paint3_linear)"/>
<path opacity="0.2" d="M30.0287 24.132L15.5134 32.3793C15.2258 32.5983 14.8748 32.7177 14.5134 32.7196C14.152 32.7216 13.7997 32.6059 13.5098 32.39L13.4353 32.4645L13.5093 32.5366L13.5098 32.5361C13.7997 32.7521 14.1519 32.8678 14.5134 32.8659C14.8748 32.864 15.2259 32.7445 15.5134 32.5254L30.1218 24.225L30.0287 24.132Z" fill="black"/>
<path opacity="0.12" d="M13.4353 32.3184C13.1074 31.9263 12.9418 31.4237 12.9725 30.9135V31.0596C12.9418 31.5698 13.1074 32.0724 13.4353 32.4645L13.5098 32.39L13.4353 32.3184Z" fill="black"/>
<path opacity="0.12" d="M35.0146 21.2988L30.0287 24.132L30.1218 24.225L35.0146 21.4449C35.3024 21.32 35.5515 21.1202 35.7358 20.8664C35.9202 20.6125 36.0331 20.3139 36.0629 20.0015C36.001 20.2844 35.8741 20.5489 35.6921 20.7741C35.5101 20.9993 35.2781 21.179 35.0146 21.2988Z" fill="black"/>
<path opacity="0.25" d="M15.5134 7.62328L35.0146 18.7033C35.2782 18.8231 35.5103 19.0029 35.6923 19.2282C35.8743 19.4535 36.0012 19.7181 36.0629 20.0011C36.0333 19.6886 35.9205 19.3898 35.7361 19.1358C35.5517 18.8819 35.3025 18.682 35.0146 18.5572L15.5134 7.47718C14.1158 6.68308 12.9725 7.34268 12.9725 8.94348V9.08958C12.9725 7.48888 14.1158 6.82928 15.5134 7.62328Z" fill="white"/>
<path d="M48.801 14.1554C49.5225 14.1554 50.1422 14 50.66 13.6893C51.1779 13.3751 51.5749 12.9453 51.8511 12.3999C52.1307 11.8544 52.2705 11.2295 52.2705 10.5253C52.2705 10.5046 52.2688 10.4407 52.2653 10.3337C52.2619 10.2267 52.2567 10.1455 52.2498 10.0903H49.6088V11.069H50.9241C50.8275 11.7111 50.6031 12.1927 50.2509 12.5138C49.8988 12.8314 49.4414 12.9868 48.8786 12.9798C48.1295 12.9695 47.5668 12.7192 47.1905 12.229C46.8142 11.7388 46.6278 11.0863 46.6312 10.2715C46.6347 9.72607 46.7192 9.24966 46.8849 8.84229C47.0507 8.43492 47.2992 8.11903 47.6306 7.89463C47.9621 7.67023 48.3781 7.56149 48.8786 7.56839C49.3723 7.57184 49.7797 7.70476 50.1008 7.96713C50.4253 8.2295 50.6583 8.58164 50.7998 9.02353L52.0737 8.82157C51.8839 8.05516 51.5196 7.45792 50.9811 7.02984C50.446 6.60175 49.7193 6.38771 48.801 6.38771C48.1381 6.38771 47.5426 6.54134 47.0144 6.84859C46.4897 7.15584 46.0737 7.59946 45.7664 8.17945C45.4626 8.75943 45.3107 9.45679 45.3107 10.2715C45.3107 11.1001 45.4661 11.8043 45.7768 12.3843C46.0909 12.9609 46.5121 13.401 47.0403 13.7048C47.5685 14.0052 48.1554 14.1554 48.801 14.1554ZM53.3106 14H58.1265V12.8297H54.5586V10.7221H57.5051V9.55173H54.5586V7.71339H58.1265V6.54306H53.3106V14ZM61.1607 14H62.4087V7.71339H64.8218V6.54306H58.7475V7.71339H61.1607V14ZM67.5132 14H68.7612V6.54306H67.5132V14ZM72.1041 14H73.3521V7.71339H75.7653V6.54306H69.691V7.71339H72.1041V14ZM81.5068 14.1554C82.2525 14.1554 82.8912 13.9931 83.4228 13.6686C83.9579 13.3406 84.367 12.8849 84.6501 12.3015C84.9366 11.718 85.0799 11.0414 85.0799 10.2715C85.0799 9.49822 84.9366 8.82157 84.6501 8.24159C84.367 7.65815 83.9579 7.20418 83.4228 6.87966C82.8912 6.55169 82.2525 6.38771 81.5068 6.38771C80.7645 6.38771 80.1259 6.55169 79.5908 6.87966C79.0591 7.20418 78.65 7.65815 78.3635 8.24159C78.0804 8.82157 77.9388 9.49822 77.9388 10.2715C77.9388 11.0414 78.0804 11.718 78.3635 12.3015C78.65 12.8849 79.0591 13.3406 79.5908 13.6686C80.1259 13.9931 80.7645 14.1554 81.5068 14.1554ZM81.5068 12.9798C80.7576 12.9695 80.1949 12.7192 79.8186 12.229C79.4423 11.7388 79.2559 11.0863 79.2593 10.2715C79.2628 9.72607 79.3474 9.24966 79.5131 8.84229C79.6788 8.43492 79.9274 8.11903 80.2588 7.89463C80.5902 7.66678 81.0062 7.55631 81.5068 7.56321C82.2594 7.57357 82.8221 7.82386 83.195 8.31409C83.5713 8.80431 83.7594 9.45679 83.7594 10.2715C83.7594 10.8135 83.6748 11.29 83.5057 11.7008C83.3399 12.1081 83.0897 12.424 82.7548 12.6484C82.4234 12.8728 82.0074 12.9833 81.5068 12.9798ZM86.1106 14H87.3742V8.74389L90.8334 14H92.0969V6.54306H90.8334V11.7992L87.3742 6.54306H86.1106V14Z" fill="white"/>
<path d="M50.3214 32.2175C51.3315 32.2175 52.199 32 52.924 31.565C53.649 31.1252 54.2048 30.5235 54.5915 29.7598C54.983 28.9962 55.1787 28.1214 55.1787 27.1354C55.1787 27.1064 55.1763 27.017 55.1715 26.8671C55.1666 26.7173 55.1594 26.6037 55.1497 26.5264H51.4523V27.8966H53.2938C53.1584 28.7956 52.8443 29.4698 52.3513 29.9193C51.8583 30.364 51.2179 30.5815 50.4301 30.5718C49.3813 30.5573 48.5935 30.2069 48.0667 29.5206C47.5398 28.8343 47.2789 27.9208 47.2837 26.7801C47.2885 26.0165 47.4069 25.3495 47.6389 24.7792C47.8709 24.2089 48.2189 23.7666 48.6829 23.4525C49.1469 23.1383 49.7293 22.9861 50.4301 22.9957C51.1212 23.0006 51.6916 23.1867 52.1411 23.554C52.5954 23.9213 52.9216 24.4143 53.1198 25.0329L54.9032 24.7502C54.6374 23.6772 54.1275 22.8411 53.3735 22.2418C52.6244 21.6425 51.607 21.3428 50.3214 21.3428C49.3934 21.3428 48.5597 21.5579 47.8202 21.988C47.0855 22.4182 46.5031 23.0392 46.073 23.8512C45.6476 24.6632 45.435 25.6395 45.435 26.7801C45.435 27.9401 45.6525 28.9261 46.0875 29.7381C46.5273 30.5452 47.1169 31.1614 47.8564 31.5868C48.5959 32.0072 49.4175 32.2175 50.3214 32.2175ZM60.0929 32.2175C60.8759 32.2175 61.5598 32.0435 62.1446 31.6955C62.7295 31.3427 63.1838 30.8569 63.5076 30.2383C63.8363 29.6148 64.0006 28.8971 64.0006 28.0851C64.0006 27.278 63.8387 26.5651 63.5149 25.9464C63.191 25.3229 62.7367 24.8348 62.1519 24.482C61.5671 24.1291 60.8808 23.9527 60.0929 23.9527C59.3245 23.9527 58.6478 24.1267 58.063 24.4747C57.4782 24.8227 57.0214 25.306 56.6928 25.9247C56.3641 26.5433 56.1998 27.2635 56.1998 28.0851C56.1998 28.8923 56.3593 29.6076 56.6783 30.231C57.0021 30.8497 57.4564 31.3354 58.0413 31.6883C58.6261 32.0411 59.31 32.2175 60.0929 32.2175ZM60.0929 30.579C59.4211 30.579 58.9112 30.3543 58.5632 29.9048C58.2201 29.4505 58.0485 28.8439 58.0485 28.0851C58.0485 27.3456 58.2128 26.7463 58.5415 26.2872C58.875 25.8232 59.3921 25.5912 60.0929 25.5912C60.7793 25.5912 61.294 25.8183 61.6372 26.2727C61.9803 26.7221 62.1519 27.3263 62.1519 28.0851C62.1519 28.8198 61.9803 29.4191 61.6372 29.8831C61.2988 30.347 60.7841 30.579 60.0929 30.579ZM69.0561 32.2175C69.8391 32.2175 70.523 32.0435 71.1078 31.6955C71.6926 31.3427 72.1469 30.8569 72.4707 30.2383C72.7994 29.6148 72.9637 28.8971 72.9637 28.0851C72.9637 27.278 72.8018 26.5651 72.478 25.9464C72.1542 25.3229 71.6998 24.8348 71.115 24.482C70.5302 24.1291 69.8439 23.9527 69.0561 23.9527C68.2876 23.9527 67.6109 24.1267 67.0261 24.4747C66.4413 24.8227 65.9846 25.306 65.6559 25.9247C65.3273 26.5433 65.1629 27.2635 65.1629 28.0851C65.1629 28.8923 65.3224 29.6076 65.6414 30.231C65.9652 30.8497 66.4196 31.3354 67.0044 31.6883C67.5892 32.0411 68.2731 32.2175 69.0561 32.2175ZM69.0561 30.579C68.3843 30.579 67.8744 30.3543 67.5264 29.9048C67.1832 29.4505 67.0116 28.8439 67.0116 28.0851C67.0116 27.3456 67.176 26.7463 67.5046 26.2872C67.8381 25.8232 68.3553 25.5912 69.0561 25.5912C69.7424 25.5912 70.2571 25.8183 70.6003 26.2727C70.9434 26.7221 71.115 27.3263 71.115 28.0851C71.115 28.8198 70.9434 29.4191 70.6003 29.8831C70.262 30.347 69.7472 30.579 69.0561 30.579ZM77.7002 32.2175C78.1062 32.2175 78.4759 32.1619 78.8094 32.0507C79.1478 31.9444 79.4498 31.7946 79.7157 31.6013V32.348C79.7253 32.9038 79.5537 33.3243 79.2009 33.6095C78.8529 33.8946 78.4059 34.0372 77.8597 34.0372C77.5504 34.0372 77.258 33.9671 76.9825 33.8269C76.707 33.6868 76.4967 33.4765 76.3518 33.1962L74.7423 33.9937C75.0468 34.5253 75.4769 34.941 76.0328 35.2407C76.5934 35.5452 77.2 35.6974 77.8525 35.6974C78.7369 35.6974 79.4957 35.5162 80.1289 35.1537C80.7669 34.796 81.1753 34.2378 81.3541 33.479C81.3928 33.305 81.4194 33.1286 81.4339 32.9497C81.4532 32.7709 81.4629 32.58 81.4629 32.377V24.1702H79.9332V24.7357C79.6577 24.4844 79.3387 24.291 78.9762 24.1557C78.6137 24.0204 78.2101 23.9527 77.7655 23.9527C77.026 23.9527 76.3832 24.1316 75.837 24.4892C75.2957 24.8469 74.8752 25.3374 74.5756 25.9609C74.2759 26.5844 74.1261 27.2925 74.1261 28.0851C74.1261 28.8681 74.2735 29.5713 74.5683 30.1948C74.8631 30.8183 75.2788 31.3113 75.8153 31.6738C76.3518 32.0362 76.9801 32.2175 77.7002 32.2175ZM77.9685 30.6515C77.5141 30.6515 77.1396 30.538 76.8447 30.3108C76.5499 30.0788 76.33 29.7695 76.185 29.3828C76.0448 28.9962 75.9748 28.5636 75.9748 28.0851C75.9748 27.6115 76.0473 27.1813 76.1923 26.7946C76.3421 26.4032 76.5668 26.0938 76.8665 25.8667C77.171 25.6347 77.5576 25.5187 78.0265 25.5187C78.6934 25.5187 79.1768 25.7555 79.4764 26.2292C79.7809 26.7028 79.9332 27.3215 79.9332 28.0851C79.9332 28.8439 79.7809 29.4626 79.4764 29.9411C79.1768 30.4147 78.6741 30.6515 77.9685 30.6515ZM83.6409 32H85.3881V21.3428H83.6409V32ZM91.1194 32.2175C91.8733 32.2175 92.5621 32.0242 93.1856 31.6375C93.8139 31.246 94.2779 30.695 94.5775 29.9846L92.8521 29.4626C92.5041 30.2069 91.8927 30.579 91.0179 30.579C90.4234 30.579 89.9546 30.4075 89.6114 30.0643C89.2683 29.7163 89.0628 29.2185 88.9952 28.5708H94.6645C94.7322 27.6284 94.6283 26.8116 94.3528 26.1204C94.0773 25.4293 93.6544 24.8952 93.0841 24.5182C92.5186 24.1412 91.8298 23.9527 91.0179 23.9527C90.2494 23.9527 89.5727 24.1267 88.9879 24.4747C88.4031 24.8179 87.9464 25.306 87.6177 25.9392C87.2891 26.5723 87.1247 27.3166 87.1247 28.1721C87.1247 28.9648 87.2915 29.6656 87.625 30.2745C87.9633 30.8835 88.4321 31.3596 89.0314 31.7028C89.6307 32.0459 90.3267 32.2175 91.1194 32.2175ZM91.0904 25.4824C91.6317 25.4824 92.0473 25.625 92.3373 25.9102C92.6322 26.1905 92.8182 26.6376 92.8956 27.2514H89.0387C89.2465 26.0721 89.9304 25.4824 91.0904 25.4824ZM99.1849 32H100.932V28.3534H103.499C103.595 28.3534 103.723 28.3485 103.883 28.3389C104.047 28.3292 104.197 28.3147 104.332 28.2954C105.231 28.1552 105.898 27.7806 106.333 27.1716C106.773 26.5578 106.993 25.8208 106.993 24.9604C106.993 24.0953 106.775 23.3582 106.34 22.7493C105.91 22.1354 105.241 21.7585 104.332 21.6183C104.197 21.5941 104.049 21.5796 103.89 21.5748C103.731 21.5651 103.6 21.5603 103.499 21.5603H99.1849V32ZM100.932 26.7221V23.1987H103.426C103.523 23.1987 103.631 23.2036 103.752 23.2132C103.873 23.2229 103.984 23.2398 104.086 23.264C104.376 23.3365 104.603 23.467 104.767 23.6555C104.936 23.8391 105.055 24.047 105.122 24.279C105.195 24.511 105.231 24.7381 105.231 24.9604C105.231 25.1828 105.195 25.4099 105.122 25.6419C105.055 25.8739 104.936 26.0817 104.767 26.2654C104.603 26.4491 104.376 26.5772 104.086 26.6496C103.984 26.6786 103.873 26.698 103.752 26.7076C103.631 26.7173 103.523 26.7221 103.426 26.7221H100.932ZM108.59 32H110.338V21.3428H108.59V32ZM114.699 32.2175C115.322 32.2175 115.851 32.116 116.286 31.913C116.726 31.7052 117.113 31.3838 117.446 30.9488V32H118.976V27.1934C118.976 26.8551 118.962 26.5433 118.933 26.2582C118.904 25.9682 118.819 25.6854 118.679 25.4099C118.423 24.8928 118.029 24.5206 117.497 24.2935C116.97 24.0663 116.359 23.9527 115.663 23.9527C114.745 23.9527 114.012 24.1533 113.466 24.5545C112.92 24.9556 112.55 25.4873 112.357 26.1494L113.952 26.6496C114.082 26.2485 114.312 25.9658 114.641 25.8014C114.969 25.6371 115.31 25.5549 115.663 25.5549C116.195 25.5549 116.586 25.6637 116.837 25.8812C117.089 26.0938 117.231 26.4249 117.265 26.8744C116.579 26.9759 115.941 27.075 115.351 27.1716C114.766 27.2635 114.269 27.377 113.858 27.5124C113.239 27.725 112.787 28.0271 112.502 28.4186C112.217 28.8053 112.074 29.2837 112.074 29.8541C112.074 30.2842 112.173 30.6781 112.371 31.0358C112.574 31.3934 112.872 31.681 113.263 31.8985C113.655 32.1112 114.133 32.2175 114.699 32.2175ZM115.047 30.8255C114.636 30.8255 114.322 30.7313 114.104 30.5428C113.892 30.3543 113.785 30.1175 113.785 29.8323C113.785 29.5762 113.867 29.3683 114.032 29.2088C114.201 29.0493 114.435 28.914 114.735 28.8028C115.01 28.711 115.341 28.6313 115.728 28.5636C116.115 28.4911 116.62 28.4065 117.243 28.3099C117.239 28.4935 117.226 28.6989 117.207 28.9261C117.188 29.1484 117.142 29.349 117.069 29.5278C117.011 29.7066 116.898 29.8976 116.729 30.1006C116.564 30.3035 116.342 30.4751 116.062 30.6153C115.781 30.7555 115.443 30.8255 115.047 30.8255ZM121.454 35.4799H123.092L127.457 24.1702H125.71L123.585 29.7743L121.396 24.1702H119.576L122.744 31.942L121.454 35.4799Z" fill="white"/>
<defs>
<linearGradient id="paint0_linear" x1="24.7996" y1="8.70983" x2="8.01724" y2="25.4922" gradientUnits="userSpaceOnUse">
<stop stop-color="#00A0FF"/>
<stop offset="0.00657" stop-color="#00A1FF"/>
<stop offset="0.2601" stop-color="#00BEFF"/>
<stop offset="0.5122" stop-color="#00D2FF"/>
<stop offset="0.7604" stop-color="#00DFFF"/>
<stop offset="1" stop-color="#00E3FF"/>
</linearGradient>
<linearGradient id="paint1_linear" x1="36.8343" y1="20.0015" x2="12.6374" y2="20.0015" gradientUnits="userSpaceOnUse">
<stop stop-color="#FFE000"/>
<stop offset="0.4087" stop-color="#FFBD00"/>
<stop offset="0.7754" stop-color="#FFA500"/>
<stop offset="1" stop-color="#FF9C00"/>
</linearGradient>
<linearGradient id="paint2_linear" x1="27.8269" y1="22.2962" x2="5.06856" y2="45.0545" gradientUnits="userSpaceOnUse">
<stop stop-color="#FF3A44"/>
<stop offset="1" stop-color="#C31162"/>
</linearGradient>
<linearGradient id="paint3_linear" x1="10.2972" y1="0.1763" x2="20.4597" y2="10.3388" gradientUnits="userSpaceOnUse">
<stop stop-color="#32A071"/>
<stop offset="0.0685" stop-color="#2DA771"/>
<stop offset="0.4762" stop-color="#15CF74"/>
<stop offset="0.8009" stop-color="#06E775"/>
<stop offset="1" stop-color="#00F076"/>
</linearGradient>
</defs>
</svg>
