<svg width="101" height="26" viewBox="0 0 101 26" fill="none" xmlns="http://www.w3.org/2000/svg">
<path d="M9.25 21V6.925L5.5 9.025L4.475 6.6L9.7 3.75H12.15V21H9.25ZM15.9416 21V18.8C16.7916 18.1 17.5333 17.475 18.1666 16.925C18.8166 16.3583 19.3916 15.8417 19.8916 15.375C20.3916 14.9083 20.8583 14.4583 21.2916 14.025C22.0416 13.275 22.6416 12.6167 23.0916 12.05C23.5583 11.4833 23.8999 10.95 24.1166 10.45C24.3333 9.95 24.4416 9.43333 24.4416 8.9C24.4416 8.31667 24.3249 7.80833 24.0916 7.375C23.8583 6.94167 23.5333 6.60833 23.1166 6.375C22.7166 6.125 22.2416 6 21.6916 6C20.9416 6 20.2916 6.24167 19.7416 6.725C19.1916 7.19167 18.8083 7.84167 18.5916 8.675L15.8416 8.125C16.0583 7.175 16.4416 6.34167 16.9916 5.625C17.5583 4.90833 18.2499 4.35833 19.0666 3.975C19.8999 3.575 20.7999 3.375 21.7666 3.375C22.5833 3.375 23.3333 3.51667 24.0166 3.8C24.6999 4.06667 25.2916 4.45 25.7916 4.95C26.3083 5.43333 26.6999 6.00833 26.9666 6.675C27.2499 7.325 27.3916 8.04167 27.3916 8.825C27.3916 9.54167 27.2583 10.2417 26.9916 10.925C26.7249 11.6083 26.2999 12.3167 25.7166 13.05C25.1499 13.7833 24.4166 14.5917 23.5166 15.475C22.5833 16.3917 21.5083 17.3583 20.2916 18.375H27.6916V21H15.9416ZM34.7262 21.375C33.1428 21.375 31.7595 20.9917 30.5762 20.225L31.4512 17.825C31.8678 18.0917 32.3428 18.3083 32.8762 18.475C33.4262 18.625 34.0178 18.7 34.6512 18.7C35.5678 18.7 36.3845 18.5083 37.1012 18.125C37.8178 17.725 38.4012 17.0833 38.8512 16.2C39.3012 15.3 39.5762 14.1083 39.6762 12.625C39.2595 13.3083 38.6845 13.85 37.9512 14.25C37.2345 14.6333 36.3928 14.825 35.4262 14.825C34.6095 14.825 33.8512 14.6833 33.1512 14.4C32.4678 14.1167 31.8678 13.725 31.3512 13.225C30.8345 12.7083 30.4345 12.1167 30.1512 11.45C29.8678 10.7667 29.7262 10.0333 29.7262 9.25C29.7262 8.41667 29.8762 7.65 30.1762 6.95C30.4928 6.23333 30.9262 5.60833 31.4762 5.075C32.0428 4.54167 32.6928 4.125 33.4262 3.825C34.1762 3.525 34.9928 3.375 35.8762 3.375C36.8762 3.375 37.7845 3.575 38.6012 3.975C39.4178 4.35833 40.1178 4.925 40.7012 5.675C41.3012 6.40833 41.7595 7.30833 42.0762 8.375C42.3928 9.44167 42.5512 10.65 42.5512 12C42.5512 13.4833 42.3595 14.8083 41.9762 15.975C41.6095 17.1417 41.0762 18.125 40.3762 18.925C39.6762 19.725 38.8428 20.3333 37.8762 20.75C36.9262 21.1667 35.8762 21.375 34.7262 21.375ZM35.8512 12.375C36.4678 12.375 37.0178 12.2417 37.5012 11.975C37.9845 11.6917 38.3595 11.3167 38.6262 10.85C38.9095 10.3833 39.0512 9.84167 39.0512 9.225C39.0512 8.60833 38.9095 8.05 38.6262 7.55C38.3428 7.05 37.9595 6.65833 37.4762 6.375C37.0095 6.075 36.4762 5.925 35.8762 5.925C35.2762 5.925 34.7345 6.075 34.2512 6.375C33.7678 6.65833 33.3845 7.05 33.1012 7.55C32.8178 8.03333 32.6762 8.58333 32.6762 9.2C32.6762 9.81667 32.8095 10.3667 33.0762 10.85C33.3595 11.3167 33.7428 11.6917 34.2262 11.975C34.7095 12.2417 35.2512 12.375 35.8512 12.375ZM45.109 25.325L44.509 23.65C45.2257 23.4 45.7923 23.025 46.209 22.525C46.6423 22.0417 46.859 21.5083 46.859 20.925C46.859 20.7083 46.834 20.5083 46.784 20.325C46.5673 20.4917 46.3173 20.575 46.034 20.575C45.7507 20.575 45.484 20.5083 45.234 20.375C45.0007 20.225 44.809 20.025 44.659 19.775C44.5257 19.525 44.459 19.25 44.459 18.95C44.459 18.65 44.5423 18.375 44.709 18.125C44.8757 17.875 45.0923 17.675 45.359 17.525C45.6423 17.375 45.9507 17.3 46.284 17.3C46.7673 17.3 47.2007 17.45 47.584 17.75C47.984 18.0333 48.2923 18.425 48.509 18.925C48.7423 19.425 48.859 19.9833 48.859 20.6C48.859 21.3333 48.7007 22.0083 48.384 22.625C48.084 23.2583 47.6507 23.8 47.084 24.25C46.534 24.7167 45.8757 25.075 45.109 25.325ZM55.234 21.375C53.6507 21.375 52.2673 20.9917 51.084 20.225L51.959 17.825C52.3757 18.0917 52.8507 18.3083 53.384 18.475C53.934 18.625 54.5257 18.7 55.159 18.7C56.0757 18.7 56.8923 18.5083 57.609 18.125C58.3257 17.725 58.909 17.0833 59.359 16.2C59.809 15.3 60.084 14.1083 60.184 12.625C59.7673 13.3083 59.1923 13.85 58.459 14.25C57.7423 14.6333 56.9007 14.825 55.934 14.825C55.1173 14.825 54.359 14.6833 53.659 14.4C52.9757 14.1167 52.3757 13.725 51.859 13.225C51.3423 12.7083 50.9423 12.1167 50.659 11.45C50.3757 10.7667 50.234 10.0333 50.234 9.25C50.234 8.41667 50.384 7.65 50.684 6.95C51.0007 6.23333 51.434 5.60833 51.984 5.075C52.5507 4.54167 53.2007 4.125 53.934 3.825C54.684 3.525 55.5007 3.375 56.384 3.375C57.384 3.375 58.2923 3.575 59.109 3.975C59.9257 4.35833 60.6257 4.925 61.209 5.675C61.809 6.40833 62.2673 7.30833 62.584 8.375C62.9007 9.44167 63.059 10.65 63.059 12C63.059 13.4833 62.8673 14.8083 62.484 15.975C62.1173 17.1417 61.584 18.125 60.884 18.925C60.184 19.725 59.3507 20.3333 58.384 20.75C57.434 21.1667 56.384 21.375 55.234 21.375ZM56.359 12.375C56.9757 12.375 57.5257 12.2417 58.009 11.975C58.4923 11.6917 58.8673 11.3167 59.134 10.85C59.4173 10.3833 59.559 9.84167 59.559 9.225C59.559 8.60833 59.4173 8.05 59.134 7.55C58.8507 7.05 58.4673 6.65833 57.984 6.375C57.5173 6.075 56.984 5.925 56.384 5.925C55.784 5.925 55.2423 6.075 54.759 6.375C54.2757 6.65833 53.8923 7.05 53.609 7.55C53.3257 8.03333 53.184 8.58333 53.184 9.2C53.184 9.81667 53.3173 10.3667 53.584 10.85C53.8673 11.3167 54.2507 11.6917 54.734 11.975C55.2173 12.2417 55.759 12.375 56.359 12.375ZM70.2242 21.375C68.6409 21.375 67.2576 20.9917 66.0742 20.225L66.9492 17.825C67.3659 18.0917 67.8409 18.3083 68.3742 18.475C68.9242 18.625 69.5159 18.7 70.1492 18.7C71.0659 18.7 71.8826 18.5083 72.5992 18.125C73.3159 17.725 73.8992 17.0833 74.3492 16.2C74.7992 15.3 75.0742 14.1083 75.1742 12.625C74.7576 13.3083 74.1826 13.85 73.4492 14.25C72.7326 14.6333 71.8909 14.825 70.9242 14.825C70.1076 14.825 69.3492 14.6833 68.6492 14.4C67.9659 14.1167 67.3659 13.725 66.8492 13.225C66.3326 12.7083 65.9326 12.1167 65.6492 11.45C65.3659 10.7667 65.2242 10.0333 65.2242 9.25C65.2242 8.41667 65.3742 7.65 65.6742 6.95C65.9909 6.23333 66.4242 5.60833 66.9742 5.075C67.5409 4.54167 68.1909 4.125 68.9242 3.825C69.6742 3.525 70.4909 3.375 71.3742 3.375C72.3742 3.375 73.2826 3.575 74.0992 3.975C74.9159 4.35833 75.6159 4.925 76.1992 5.675C76.7992 6.40833 77.2576 7.30833 77.5742 8.375C77.8909 9.44167 78.0492 10.65 78.0492 12C78.0492 13.4833 77.8576 14.8083 77.4742 15.975C77.1076 17.1417 76.5742 18.125 75.8742 18.925C75.1742 19.725 74.3409 20.3333 73.3742 20.75C72.4242 21.1667 71.3742 21.375 70.2242 21.375ZM71.3492 12.375C71.9659 12.375 72.5159 12.2417 72.9992 11.975C73.4826 11.6917 73.8576 11.3167 74.1242 10.85C74.4076 10.3833 74.5492 9.84167 74.5492 9.225C74.5492 8.60833 74.4076 8.05 74.1242 7.55C73.8409 7.05 73.4576 6.65833 72.9742 6.375C72.5076 6.075 71.9742 5.925 71.3742 5.925C70.7742 5.925 70.2326 6.075 69.7492 6.375C69.2659 6.65833 68.8826 7.05 68.5992 7.55C68.3159 8.03333 68.1742 8.58333 68.1742 9.2C68.1742 9.81667 68.3076 10.3667 68.5742 10.85C68.8576 11.3167 69.2409 11.6917 69.7242 11.975C70.2076 12.2417 70.7492 12.375 71.3492 12.375ZM79.5836 15.275L80.0336 13.4H81.4836C81.4669 13.1167 81.4586 12.825 81.4586 12.525C81.4586 12.1583 81.4669 11.8083 81.4836 11.475H79.5836L80.0336 9.6H81.7086C81.9586 8.3 82.3753 7.18333 82.9586 6.25C83.5419 5.31667 84.2669 4.60833 85.1336 4.125C86.0169 3.625 87.0086 3.375 88.1086 3.375C89.0586 3.375 89.9253 3.55833 90.7086 3.925C91.4919 4.29167 92.1503 4.80833 92.6836 5.475C93.2169 6.14167 93.6003 6.93333 93.8336 7.85L91.1086 8.4C90.8753 7.63333 90.4919 7.05 89.9586 6.65C89.4253 6.23333 88.8003 6.025 88.0836 6.025C87.2003 6.025 86.4669 6.33333 85.8836 6.95C85.3003 7.56667 84.8836 8.45 84.6336 9.6H90.0086L89.5586 11.475H84.3836C84.3669 11.7917 84.3586 12.125 84.3586 12.475C84.3586 12.7917 84.3669 13.1 84.3836 13.4H89.1836L88.7586 15.275H84.6336C84.8669 16.4083 85.2753 17.2667 85.8586 17.85C86.4419 18.4333 87.1753 18.725 88.0586 18.725C88.8086 18.725 89.4586 18.5167 90.0086 18.1C90.5753 17.6833 90.9753 17.1 91.2086 16.35L93.9336 16.9C93.7003 17.8167 93.3003 18.6083 92.7336 19.275C92.1836 19.9417 91.5003 20.4583 90.6836 20.825C89.8836 21.1917 88.9919 21.375 88.0086 21.375C86.8919 21.375 85.9003 21.1333 85.0336 20.65C84.1669 20.1667 83.4503 19.475 82.8836 18.575C82.3169 17.6583 81.9169 16.5583 81.6836 15.275H79.5836Z" fill="white"/>
<rect width="101" height="2" transform="matrix(1 0 0 -1 0 14)" fill="white"/>
</svg>
