<svg width="18" height="18" viewBox="0 0 18 18" fill="none" xmlns="http://www.w3.org/2000/svg">
<path d="M12.5023 11.1215H11.7503L11.468 10.8857C12.3614 9.80154 12.9256 8.43419 12.9256 6.87859C12.9255 3.48419 10.1987 0.75 6.81439 0.75C3.47645 0.75 0.75 3.48419 0.75 6.87859C0.75 10.273 3.47645 13.0071 6.86123 13.0071C8.36561 13.0071 9.77584 12.4414 10.8569 11.5459L11.1389 11.7816V12.5358L15.8398 17.25L17.25 15.8357L12.5023 11.1215ZM6.86123 11.1215C4.51075 11.1215 2.6304 9.23568 2.6304 6.87859C2.6304 4.52141 4.51075 2.63577 6.86123 2.63577C9.21162 2.63577 11.092 4.52141 11.092 6.87859C11.092 9.23568 9.21162 11.1215 6.86123 11.1215Z" fill="#878787"/>
</svg>
