<svg width="720" height="65" viewBox="0 0 720 65" fill="none" xmlns="http://www.w3.org/2000/svg">
<rect y="47" width="407" height="16" fill="#CF052D"/>
<path d="M4.03 53V8.98H12.71L26.598 34.4L40.548 8.98H48.918V53H39.99V25.162L29.76 43.824H23.188L12.958 25.162V53H4.03ZM53.91 53L71.394 8.98H81.19L98.736 53H89.25L85.654 43.328H66.62L63.024 53H53.91ZM69.534 35.516H82.74L76.106 17.97L69.534 35.516ZM100.824 53L116.448 29.812L102.622 8.98H113.1L121.718 23.24L130.336 8.98H140.566L126.802 29.812L142.426 53H131.514L121.47 36.88L111.426 53H100.824ZM156.864 53V17.164H144.464V8.98H178.502V17.164H166.102V53H156.864ZM185.065 53V8.98H212.655V16.854H193.993V26.464H210.671V34.338H193.993V45.126H213.275V53H185.065ZM220.667 53V8.98H234.803C238.399 8.98 241.499 9.55866 244.103 10.716C246.748 11.832 248.773 13.4647 250.179 15.614C251.584 17.722 252.287 20.2227 252.287 23.116C252.287 24.8107 251.977 26.4433 251.357 28.014C250.737 29.5433 249.869 30.9487 248.753 32.23C247.637 33.47 246.293 34.5033 244.723 35.33L254.705 53H244.537L236.663 37.748C235.877 37.7893 235.03 37.81 234.121 37.81C232.798 37.81 231.351 37.686 229.781 37.438V53H220.667ZM229.781 16.792V29.75C230.566 29.874 231.351 29.9773 232.137 30.06C232.922 30.1013 233.749 30.122 234.617 30.122C237.262 30.122 239.308 29.5433 240.755 28.386C242.201 27.1873 242.925 25.534 242.925 23.426C242.925 21.318 242.201 19.6853 240.755 18.528C239.308 17.3707 237.262 16.792 234.617 16.792H229.781ZM275.961 53L290.841 18.342H270.753V10.22H300.761V16.916L285.819 53H275.961ZM304.808 53.248C303.774 53.248 302.844 53 302.018 52.504C301.232 52.008 300.592 51.3467 300.096 50.52C299.6 49.6933 299.352 48.784 299.352 47.792C299.352 46.8 299.6 45.8907 300.096 45.064C300.592 44.2373 301.232 43.576 302.018 43.08C302.844 42.584 303.774 42.336 304.808 42.336C305.841 42.336 306.75 42.584 307.536 43.08C308.362 43.576 309.024 44.2373 309.52 45.064C310.016 45.8907 310.264 46.8 310.264 47.792C310.264 48.784 310.016 49.6933 309.52 50.52C309.024 51.3467 308.362 52.008 307.536 52.504C306.75 53 305.841 53.248 304.808 53.248ZM321.255 53V19.644L312.575 24.48L309.661 17.164L322.495 10.22H329.997V53H321.255ZM366.6 53.93C363.955 53.93 361.516 53.4753 359.284 52.566C357.094 51.6153 355.213 50.2927 353.642 48.598C352.113 46.862 351.059 44.7953 350.48 42.398L359.098 40.538C359.636 42.2327 360.566 43.5553 361.888 44.506C363.252 45.4567 364.864 45.932 366.724 45.932C368.047 45.932 369.204 45.7047 370.196 45.25C371.23 44.754 372.015 44.0927 372.552 43.266C373.131 42.4393 373.42 41.4887 373.42 40.414C373.42 39.05 372.904 37.9547 371.87 37.128C370.837 36.26 369.163 35.5573 366.848 35.02L364.864 34.586C360.318 33.594 356.97 32.0027 354.82 29.812C352.671 27.58 351.596 24.8727 351.596 21.69C351.596 19.706 351.989 17.8873 352.774 16.234C353.56 14.5807 354.634 13.1547 355.998 11.956C357.404 10.716 359.036 9.76533 360.896 9.104C362.756 8.40133 364.761 8.05 366.91 8.05C369.349 8.05 371.622 8.50467 373.73 9.414C375.838 10.3233 377.616 11.6253 379.062 13.32C380.509 15.0147 381.48 17.0193 381.976 19.334L373.482 21.194C372.986 19.5407 372.118 18.28 370.878 17.412C369.68 16.5027 368.274 16.048 366.662 16.048C365.546 16.048 364.534 16.2753 363.624 16.73C362.756 17.1433 362.054 17.7427 361.516 18.528C361.02 19.272 360.772 20.1193 360.772 21.07C360.772 22.5167 361.33 23.6327 362.446 24.418C363.562 25.162 365.216 25.782 367.406 26.278L369.39 26.712C373.896 27.704 377.223 29.2747 379.372 31.424C381.563 33.5733 382.658 36.322 382.658 39.67C382.658 41.778 382.245 43.7 381.418 45.436C380.633 47.172 379.517 48.6807 378.07 49.962C376.624 51.2433 374.929 52.2353 372.986 52.938C371.044 53.5993 368.915 53.93 366.6 53.93ZM406.853 54.24C403.96 54.24 401.356 53.806 399.041 52.938C396.727 52.0287 394.743 50.7473 393.089 49.094C391.436 47.3993 390.155 45.3947 389.245 43.08C388.377 40.724 387.943 38.0993 387.943 35.206V8.98H397.181V34.772C397.181 37.004 397.574 38.9467 398.359 40.6C399.145 42.2533 400.261 43.5347 401.707 44.444C403.195 45.312 404.931 45.746 406.915 45.746C408.899 45.746 410.615 45.312 412.061 44.444C413.508 43.5347 414.624 42.2533 415.409 40.6C416.236 38.9467 416.649 37.004 416.649 34.772V8.98H425.887V35.206C425.887 38.0993 425.433 40.724 424.523 43.08C423.655 45.3947 422.374 47.3993 420.679 49.094C419.026 50.7473 417.021 52.0287 414.665 52.938C412.351 53.806 409.747 54.24 406.853 54.24ZM433.307 53V8.98H447.443C451.039 8.98 454.139 9.55866 456.743 10.716C459.389 11.832 461.414 13.4647 462.819 15.614C464.225 17.722 464.927 20.2227 464.927 23.116C464.927 24.8107 464.617 26.4433 463.997 28.014C463.377 29.5433 462.509 30.9487 461.393 32.23C460.277 33.47 458.934 34.5033 457.363 35.33L467.345 53H457.177L449.303 37.748C448.518 37.7893 447.671 37.81 446.761 37.81C445.439 37.81 443.992 37.686 442.421 37.438V53H433.307ZM442.421 16.792V29.75C443.207 29.874 443.992 29.9773 444.777 30.06C445.563 30.1013 446.389 30.122 447.257 30.122C449.903 30.122 451.949 29.5433 453.395 28.386C454.842 27.1873 455.565 25.534 455.565 23.426C455.565 21.318 454.842 19.6853 453.395 18.528C451.949 17.3707 449.903 16.792 447.257 16.792H442.421ZM472.421 53V8.98H486.557C490.153 8.98 493.253 9.55866 495.857 10.716C498.502 11.832 500.527 13.4647 501.933 15.614C503.338 17.722 504.041 20.2227 504.041 23.116C504.041 24.8107 503.731 26.4433 503.111 28.014C502.491 29.5433 501.623 30.9487 500.507 32.23C499.391 33.47 498.047 34.5033 496.477 35.33L506.459 53H496.291L488.417 37.748C487.631 37.7893 486.784 37.81 485.875 37.81C484.552 37.81 483.105 37.686 481.535 37.438V53H472.421ZM481.535 16.792V29.75C482.32 29.874 483.105 29.9773 483.891 30.06C484.676 30.1013 485.503 30.122 486.371 30.122C489.016 30.122 491.062 29.5433 492.509 28.386C493.955 27.1873 494.679 25.534 494.679 23.426C494.679 21.318 493.955 19.6853 492.509 18.528C491.062 17.3707 489.016 16.792 486.371 16.792H481.535ZM532.256 54.24C529.652 54.24 527.193 53.868 524.878 53.124C522.564 52.38 520.456 51.326 518.554 49.962C516.694 48.5567 515.082 46.9033 513.718 45.002C512.396 43.0593 511.362 40.91 510.618 38.554C509.874 36.198 509.502 33.6973 509.502 31.052C509.502 28.4067 509.874 25.906 510.618 23.55C511.362 21.1527 512.416 19.0033 513.78 17.102C515.144 15.1593 516.756 13.506 518.616 12.142C520.518 10.7367 522.626 9.662 524.94 8.918C527.255 8.13267 529.735 7.74 532.38 7.74C534.984 7.74 537.444 8.112 539.758 8.856C542.073 9.6 544.16 10.6747 546.02 12.08C547.922 13.444 549.534 15.0973 550.856 17.04C552.22 18.9413 553.274 21.07 554.018 23.426C554.762 25.782 555.134 28.2827 555.134 30.928C555.134 33.5733 554.762 36.0947 554.018 38.492C553.274 40.848 552.22 42.9973 550.856 44.94C549.492 46.8413 547.86 48.4947 545.958 49.9C544.098 51.264 542.011 52.318 539.696 53.062C537.382 53.8473 534.902 54.24 532.256 54.24ZM532.318 45.746C534.22 45.746 535.976 45.3947 537.588 44.692C539.242 43.948 540.647 42.9147 541.804 41.592C543.003 40.2693 543.933 38.7193 544.594 36.942C545.256 35.1233 545.586 33.1393 545.586 30.99C545.586 28.8407 545.256 26.8773 544.594 25.1C543.933 23.2813 543.003 21.7107 541.804 20.388C540.647 19.0653 539.242 18.0527 537.588 17.35C535.976 16.606 534.22 16.234 532.318 16.234C530.417 16.234 528.64 16.606 526.986 17.35C525.374 18.0527 523.969 19.0653 522.77 20.388C521.613 21.7107 520.704 23.2813 520.042 25.1C519.381 26.8773 519.05 28.8407 519.05 30.99C519.05 33.1393 519.381 35.1233 520.042 36.942C520.704 38.7193 521.613 40.2693 522.77 41.592C523.969 42.9147 525.374 43.948 526.986 44.692C528.64 45.3947 530.417 45.746 532.318 45.746ZM580.078 54.24C577.184 54.24 574.58 53.806 572.266 52.938C569.951 52.0287 567.967 50.7473 566.314 49.094C564.66 47.3993 563.379 45.3947 562.47 43.08C561.602 40.724 561.168 38.0993 561.168 35.206V8.98H570.406V34.772C570.406 37.004 570.798 38.9467 571.584 40.6C572.369 42.2533 573.485 43.5347 574.932 44.444C576.42 45.312 578.156 45.746 580.14 45.746C582.124 45.746 583.839 45.312 585.286 44.444C586.732 43.5347 587.848 42.2533 588.634 40.6C589.46 38.9467 589.874 37.004 589.874 34.772V8.98H599.112V35.206C599.112 38.0993 598.657 40.724 597.748 43.08C596.88 45.3947 595.598 47.3993 593.904 49.094C592.25 50.7473 590.246 52.0287 587.89 52.938C585.575 53.806 582.971 54.24 580.078 54.24ZM606.532 53V8.98H614.53L634.928 38.12V8.98H643.856V53H635.858L615.46 23.86V53H606.532ZM651.942 53V8.98H669.054C672.526 8.98 675.688 9.51733 678.54 10.592C681.392 11.6253 683.851 13.1133 685.918 15.056C687.985 16.9987 689.576 19.3133 690.692 22C691.808 24.6867 692.366 27.6627 692.366 30.928C692.366 34.1933 691.787 37.19 690.63 39.918C689.514 42.6047 687.923 44.94 685.856 46.924C683.789 48.8667 681.309 50.3753 678.416 51.45C675.564 52.4833 672.402 53 668.93 53H651.942ZM661.18 44.816H668.496C671.431 44.816 673.973 44.258 676.122 43.142C678.271 42.026 679.925 40.4347 681.082 38.368C682.239 36.3013 682.818 33.842 682.818 30.99C682.818 28.138 682.239 25.6787 681.082 23.612C679.925 21.5453 678.271 19.954 676.122 18.838C673.973 17.722 671.431 17.164 668.496 17.164H661.18V44.816Z" fill="white"/>
</svg>
