<svg width="4" height="16" viewBox="0 0 4 16" fill="none" xmlns="http://www.w3.org/2000/svg">
<path fill-rule="evenodd" clip-rule="evenodd" d="M3.60001 14.4C3.60001 13.52 2.88001 12.8 2.00001 12.8C1.12001 12.8 0.400006 13.52 0.400006 14.4C0.400006 15.28 1.12001 16 2.00001 16C2.88001 16 3.60001 15.28 3.60001 14.4ZM3.60001 8C3.60001 7.12 2.88001 6.4 2.00001 6.4C1.12001 6.4 0.400006 7.12 0.400006 8C0.400006 8.88 1.12001 9.6 2.00001 9.6C2.88001 9.6 3.60001 8.88 3.60001 8ZM3.60001 1.6C3.60001 0.72 2.88001 0 2.00001 0C1.12001 0 0.400006 0.72 0.400006 1.6C0.400006 2.48 1.12001 3.2 2.00001 3.2C2.88001 3.2 3.60001 2.48 3.60001 1.6Z" fill="#AAAEB5"/>
</svg>
