<svg width="1066" height="48" viewBox="0 0 1066 48" fill="none" xmlns="http://www.w3.org/2000/svg">
<rect y="25" width="1066" height="2" fill="#81868C"/>
<rect y="25" width="1066" height="2" fill="#81868C"/>
<path d="M1047.41 6.64V5.5C1047.9 5.212 1048.45 5.068 1049.06 5.068C1049.86 5.068 1050.49 5.268 1050.93 5.668C1051.39 6.06 1051.62 6.556 1051.62 7.156C1051.62 7.588 1051.51 7.968 1051.29 8.296C1051.09 8.616 1050.77 8.86 1050.36 9.028C1050.81 9.14 1051.17 9.352 1051.43 9.664C1051.68 9.976 1051.81 10.368 1051.81 10.84C1051.81 11.488 1051.58 12.024 1051.11 12.448C1050.65 12.864 1050 13.072 1049.16 13.072C1048.37 13.072 1047.7 12.936 1047.15 12.664V11.512C1047.75 11.832 1048.39 11.992 1049.1 11.992C1049.57 11.992 1049.94 11.876 1050.2 11.644C1050.47 11.404 1050.61 11.1 1050.61 10.732C1050.61 10.348 1050.46 10.052 1050.17 9.844C1049.87 9.636 1049.43 9.532 1048.83 9.532H1048.35V8.524H1048.83C1049.27 8.524 1049.64 8.416 1049.94 8.2C1050.24 7.976 1050.39 7.672 1050.39 7.288C1050.39 6.904 1050.27 6.616 1050.02 6.424C1049.78 6.232 1049.45 6.136 1049.03 6.136C1048.48 6.136 1047.94 6.304 1047.41 6.64ZM1053.07 8.308C1053.07 8.084 1053.14 7.896 1053.3 7.744C1053.46 7.584 1053.65 7.504 1053.87 7.504C1054.1 7.504 1054.28 7.584 1054.44 7.744C1054.6 7.896 1054.68 8.084 1054.68 8.308C1054.68 8.532 1054.6 8.724 1054.44 8.884C1054.28 9.036 1054.1 9.112 1053.87 9.112C1053.64 9.112 1053.45 9.036 1053.3 8.884C1053.14 8.732 1053.07 8.54 1053.07 8.308ZM1053.3 12.784C1053.14 12.624 1053.07 12.432 1053.07 12.208C1053.07 11.984 1053.14 11.796 1053.3 11.644C1053.46 11.484 1053.65 11.404 1053.87 11.404C1054.1 11.404 1054.28 11.484 1054.44 11.644C1054.6 11.796 1054.68 11.984 1054.68 12.208C1054.68 12.432 1054.6 12.624 1054.44 12.784C1054.28 12.936 1054.1 13.012 1053.87 13.012C1053.64 13.012 1053.45 12.936 1053.3 12.784ZM1057.02 10.144H1059.38V5.86L1057.02 10.144ZM1061.66 10.144V11.164H1060.56V13H1059.38V11.164H1055.83V10.144L1058.65 5.14H1060.56V10.144H1061.66ZM1062.11 7.576V6.316L1064.07 5.152H1065.14V13H1063.97V6.436L1062.11 7.576Z" fill="#EDEFF2"/>
<path d="M0.192 7.576V6.316L2.148 5.152H3.216V13H2.052V6.436L0.192 7.576ZM4.77413 8.308C4.77413 8.084 4.85013 7.896 5.00213 7.744C5.16213 7.584 5.35413 7.504 5.57812 7.504C5.80213 7.504 5.99013 7.584 6.14213 7.744C6.30213 7.896 6.38213 8.084 6.38213 8.308C6.38213 8.532 6.30213 8.724 6.14213 8.884C5.99013 9.036 5.80213 9.112 5.57812 9.112C5.34613 9.112 5.15413 9.036 5.00213 8.884C4.85013 8.732 4.77413 8.54 4.77413 8.308ZM5.00213 12.784C4.85013 12.624 4.77413 12.432 4.77413 12.208C4.77413 11.984 4.85013 11.796 5.00213 11.644C5.16213 11.484 5.35413 11.404 5.57812 11.404C5.80213 11.404 5.99013 11.484 6.14213 11.644C6.30213 11.796 6.38213 11.984 6.38213 12.208C6.38213 12.432 6.30213 12.624 6.14213 12.784C5.99013 12.936 5.80213 13.012 5.57812 13.012C5.34613 13.012 5.15413 12.936 5.00213 12.784ZM9.13013 11.98H12.5381V13H7.51013V12.028C8.51813 11.292 9.36613 10.532 10.0541 9.748C10.7501 8.956 11.0981 8.236 11.0981 7.588C11.0981 7.132 10.9661 6.784 10.7021 6.544C10.4381 6.296 10.0741 6.172 9.61013 6.172C8.97013 6.172 8.34213 6.412 7.72613 6.892V5.728C8.30213 5.288 8.98613 5.068 9.77813 5.068C10.5141 5.068 11.1221 5.276 11.6021 5.692C12.0821 6.1 12.3221 6.684 12.3221 7.444C12.3221 8.852 11.2581 10.364 9.13013 11.98ZM15.1913 6.16V8.224C15.4873 8.16 15.7593 8.128 16.0073 8.128C16.8233 8.128 17.4633 8.344 17.9273 8.776C18.3913 9.2 18.6233 9.776 18.6233 10.504C18.6233 11.288 18.3633 11.916 17.8433 12.388C17.3313 12.852 16.6153 13.084 15.6953 13.084C14.8713 13.084 14.1913 12.948 13.6553 12.676V11.536C14.1673 11.848 14.7833 12.004 15.5033 12.004C16.7673 12.004 17.3993 11.492 17.3993 10.468C17.3993 10.06 17.2553 9.744 16.9673 9.52C16.6873 9.288 16.3073 9.172 15.8273 9.172C15.2193 9.172 14.6193 9.312 14.0273 9.592V5.14H18.0953V6.16H15.1913Z" fill="#EDEFF2"/>
<rect y="25" width="340" height="2" fill="#00C65E"/>
<g filter="url(#filter0_dd)">
<circle cx="340" cy="26" r="10" fill="white"/>
</g>
<defs>
<filter id="filter0_dd" x="321" y="10" width="38" height="38" filterUnits="userSpaceOnUse" color-interpolation-filters="sRGB">
<feFlood flood-opacity="0" result="BackgroundImageFix"/>
<feColorMatrix in="SourceAlpha" type="matrix" values="0 0 0 0 0 0 0 0 0 0 0 0 0 0 0 0 0 0 127 0"/>
<feOffset dy="2"/>
<feGaussianBlur stdDeviation="2"/>
<feColorMatrix type="matrix" values="0 0 0 0 0 0 0 0 0 0 0 0 0 0 0 0 0 0 0.1 0"/>
<feBlend mode="normal" in2="BackgroundImageFix" result="effect1_dropShadow"/>
<feColorMatrix in="SourceAlpha" type="matrix" values="0 0 0 0 0 0 0 0 0 0 0 0 0 0 0 0 0 0 127 0"/>
<feOffset dy="3"/>
<feGaussianBlur stdDeviation="4.5"/>
<feColorMatrix type="matrix" values="0 0 0 0 0 0 0 0 0 0 0 0 0 0 0 0 0 0 0.15 0"/>
<feBlend mode="normal" in2="effect1_dropShadow" result="effect2_dropShadow"/>
<feBlend mode="normal" in="SourceGraphic" in2="effect2_dropShadow" result="shape"/>
</filter>
</defs>
</svg>
