<svg width="98" height="22" viewBox="0 0 98 22" fill="none" xmlns="http://www.w3.org/2000/svg">
<path d="M87 22C93.0751 22 98 17.0751 98 11C98 4.92487 93.0751 0 87 0C80.9249 0 76 4.92487 76 11C76 17.0751 80.9249 22 87 22Z" fill="#CFCFCF"/>
<path d="M82.4258 14.435C82.4533 14.5444 83.1395 17.1111 86.9999 17.1111C90.8609 17.1111 91.5466 14.5444 91.5741 14.435C91.6077 14.3024 91.5478 14.1649 91.4293 14.0965C91.3101 14.0287 91.161 14.0488 91.0626 14.1435C91.051 14.1552 89.8685 15.2778 86.9999 15.2778C84.1314 15.2778 82.9483 14.1552 82.9373 14.1442C82.8786 14.0861 82.8004 14.0555 82.7222 14.0555C82.6708 14.0555 82.6189 14.0684 82.5718 14.0947C82.452 14.1631 82.3922 14.3018 82.4258 14.435Z" fill="#4F5660"/>
<path d="M83.3334 10.3889C84.1772 10.3889 84.8612 9.43125 84.8612 8.24997C84.8612 7.0687 84.1772 6.11108 83.3334 6.11108C82.4897 6.11108 81.8057 7.0687 81.8057 8.24997C81.8057 9.43125 82.4897 10.3889 83.3334 10.3889Z" fill="#4F5660"/>
<path d="M90.6667 10.3889C91.5105 10.3889 92.1945 9.43125 92.1945 8.24997C92.1945 7.0687 91.5105 6.11108 90.6667 6.11108C89.8229 6.11108 89.1389 7.0687 89.1389 8.24997C89.1389 9.43125 89.8229 10.3889 90.6667 10.3889Z" fill="#4F5660"/>
<path d="M39 1C37.8954 1 37 1.89543 37 3V19C37 20.1046 37.8954 21 39 21H59C60.1046 21 61 20.1046 61 19V3C61 1.89543 60.1046 1 59 1H39ZM46.7645 10.448V14.48C45.9004 15.044 44.8804 15.356 43.7404 15.356C41.1124 15.356 39.6604 13.628 39.6604 11.072C39.6604 8.504 41.2324 6.764 43.7884 6.764C44.8084 6.764 45.6604 7.004 46.3204 7.376L46.0444 9.164C45.4205 8.768 44.6884 8.456 43.8365 8.456C42.4085 8.456 41.7125 9.512 41.7125 11.06C41.7125 12.62 42.4324 13.712 43.8604 13.712C44.3164 13.712 44.6405 13.616 44.9764 13.448V11.972H43.4285V10.448H46.7645ZM48.5481 6.92H50.6001V15.2H48.5481V6.92ZM57.4724 6.92V8.636H54.5564V10.328H56.8604V12.044H54.5564V15.2H52.5164V6.92H57.4724Z" fill="#B9BBBE"/>
<path fill-rule="evenodd" clip-rule="evenodd" d="M14.886 6.99894H18C19.104 6.99894 20 7.89594 20 8.99894V10.9989H0V8.99894C0 7.89594 0.897 6.99894 2 6.99894H5.114C4.663 6.76394 4.236 6.47694 3.879 6.12094C2.709 4.95094 2.709 3.04794 3.879 1.87894C5.012 0.745942 6.986 0.745942 8.121 1.87694C9.758 3.51394 9.979 6.59494 9.998 6.94094C9.9991 6.95244 9.9966 6.96273 9.9941 6.97298C9.992 6.98145 9.99 6.98989 9.99 6.99894H10.01C10.01 6.9898 10.0079 6.98128 10.0058 6.97281C10.0034 6.96276 10.0009 6.9528 10.002 6.94194C10.022 6.59594 10.242 3.51494 11.879 1.87794C13.014 0.744942 14.986 0.745942 16.121 1.87694C17.29 3.04894 17.29 4.95194 16.121 6.12094C15.764 6.47694 15.337 6.76394 14.886 6.99894ZM5.293 4.70694C4.903 4.31594 4.903 3.68194 5.293 3.29194C5.481 3.10294 5.732 2.99994 6 2.99994C6.268 2.99994 6.519 3.10294 6.707 3.29194C7.297 3.88194 7.641 4.93994 7.825 5.82194C6.945 5.63894 5.879 5.29294 5.293 4.70694ZM12.174 5.82394C12.359 4.94094 12.702 3.88294 13.293 3.29294C13.481 3.10294 13.732 2.99994 14 2.99994C14.268 2.99994 14.519 3.10294 14.706 3.29094C15.096 3.68194 15.097 4.31594 14.707 4.70694C14.116 5.29794 13.057 5.64194 12.174 5.82394ZM1 12.9989V18.9989C1 20.1019 1.897 20.9989 3 20.9989H9V12.9989H1ZM11 12.9989V20.9989H17C18.104 20.9989 19 20.1019 19 18.9989V12.9989H11Z" fill="#B9BBBE"/>
</svg>
