<svg width="18" height="18" viewBox="0 0 18 18" fill="none" xmlns="http://www.w3.org/2000/svg">
<path d="M9.00008 0.669189C4.40508 0.669189 0.666748 4.40669 0.666748 9.00256V15.6692C0.666748 16.5892 1.41258 17.3359 2.33341 17.3359H4.00008C4.92008 17.3359 5.66675 16.5892 5.66675 15.6692V13.1692C5.66675 12.2492 4.92008 11.5026 4.00008 11.5026H2.33341V9.00256C2.33341 5.32586 5.32425 2.33586 9.00008 2.33586C12.6759 2.33586 15.6667 5.32586 15.6667 9.00256V11.5026H14.0001C13.0801 11.5026 12.3334 12.2492 12.3334 13.1692V15.6692C12.3334 16.5892 13.0801 17.3359 14.0001 17.3359H15.6667C16.5867 17.3359 17.3334 16.5892 17.3334 15.6692V9.00256C17.3334 4.40669 13.5951 0.669189 9.00008 0.669189Z" fill="#B9BBBE"/>
</svg>
