<svg width="20" height="20" viewBox="0 0 20 20" fill="none" xmlns="http://www.w3.org/2000/svg">
<path fill-rule="evenodd" clip-rule="evenodd" d="M12.4917 9.16663C12.4917 10.55 11.3834 11.6666 10.0001 11.6666C8.61675 11.6666 7.50008 10.55 7.50008 9.16663V4.16663C7.50008 2.78329 8.61675 1.66663 10.0001 1.66663C11.3834 1.66663 12.5001 2.78329 12.5001 4.16663L12.4917 9.16663ZM10.0001 13.4166C12.3001 13.4166 14.4167 11.6666 14.4167 9.16663H15.8334C15.8334 12.0166 13.5667 14.3666 10.8334 14.7666V17.5H9.16675V14.7666C6.43341 14.3583 4.16675 12.0083 4.16675 9.16663H5.58341C5.58341 11.6666 7.70008 13.4166 10.0001 13.4166ZM10.0001 3.33329C9.33341 3.33329 9.16675 3.88885 9.16675 4.16663V9.16663C9.16675 9.44438 9.33341 9.99996 10.0001 9.99996C10.6667 9.99996 10.8334 9.44438 10.8334 9.16663V4.16663C10.8334 3.88885 10.6667 3.33329 10.0001 3.33329Z" fill="#B9BBBE"/>
<path fill-rule="evenodd" clip-rule="evenodd" d="M12.4917 9.16663C12.4917 10.55 11.3834 11.6666 10.0001 11.6666C8.61675 11.6666 7.50008 10.55 7.50008 9.16663V4.16663C7.50008 2.78329 8.61675 1.66663 10.0001 1.66663C11.3834 1.66663 12.5001 2.78329 12.5001 4.16663L12.4917 9.16663ZM10.0001 13.4166C12.3001 13.4166 14.4167 11.6666 14.4167 9.16663H15.8334C15.8334 12.0166 13.5667 14.3666 10.8334 14.7666V18.3333H9.16675V14.7666C6.43341 14.3583 4.16675 12.0083 4.16675 9.16663H5.58341C5.58341 11.6666 7.70008 13.4166 10.0001 13.4166Z" fill="#B9BBBE"/>
</svg>
