<svg width="20" height="20" viewBox="0 0 20 20" fill="none" xmlns="http://www.w3.org/2000/svg">
<path fill-rule="evenodd" clip-rule="evenodd" d="M16.4484 8.33329H18.3334V11.6666H16.4492C16.2484 12.4425 15.9167 13.165 15.4709 13.8033L16.6667 15L15.0001 16.6666L13.8042 15.47C13.1642 15.9158 12.4434 16.2483 11.6667 16.4483V18.3333H8.33341V16.4483C7.55758 16.2483 6.83591 15.9158 6.19675 15.47L5.00008 16.6666L3.33341 15L4.53008 13.8033C4.08425 13.1658 3.75175 12.4433 3.55175 11.6666H1.66675V8.33329H3.55175C3.75175 7.55663 4.08341 6.83496 4.53008 6.19663L3.33341 4.99996L5.00008 3.33329L6.19675 4.52996C6.83508 4.08329 7.55675 3.75163 8.33341 3.55163V1.66663H11.6667V3.55079C12.4434 3.75163 13.1642 4.08329 13.8042 4.52913L15.0001 3.33246L16.6667 4.99913L15.4701 6.19663C15.9159 6.83496 16.2484 7.55746 16.4484 8.33329ZM10.0001 13.3333C11.841 13.3333 13.3334 11.8409 13.3334 9.99996C13.3334 8.15901 11.841 6.66663 10.0001 6.66663C8.15913 6.66663 6.66675 8.15901 6.66675 9.99996C6.66675 11.8409 8.15913 13.3333 10.0001 13.3333Z" fill="#B9BBBE"/>
</svg>
