<svg width="40" height="40" viewBox="0 0 40 40" fill="none" xmlns="http://www.w3.org/2000/svg">
<path d="M33.3333 20H6.66669" stroke="#34607F" stroke-width="2" stroke-miterlimit="10" stroke-linecap="square"/>
<path d="M6.66669 8.33331H33.3333" stroke="#34607F" stroke-width="2" stroke-miterlimit="10" stroke-linecap="square"/>
<path d="M15 33.3333V38.3333H8.33337V33.3333" stroke="#34607F" stroke-width="2" stroke-miterlimit="10" stroke-linecap="square"/>
<path d="M31.6667 33.3333V38.3333H25V33.3333" stroke="#34607F" stroke-width="2" stroke-miterlimit="10" stroke-linecap="square"/>
<path d="M33.3333 33.3333H6.66669V4.99999C6.66669 3.15832 8.15835 1.66666 10 1.66666H30C31.8417 1.66666 33.3333 3.15832 33.3333 4.99999V33.3333Z" stroke="#34607F" stroke-width="2" stroke-miterlimit="10" stroke-linecap="square"/>
<path d="M1.66669 15V20" stroke="#34607F" stroke-width="2" stroke-miterlimit="10" stroke-linecap="square"/>
<path d="M38.3334 15V20" stroke="#34607F" stroke-width="2" stroke-miterlimit="10" stroke-linecap="square"/>
<path d="M14 26.6667C14 27.0349 13.7015 27.3333 13.3334 27.3333C12.9652 27.3333 12.6667 27.0349 12.6667 26.6667C12.6667 26.2985 12.9652 26 13.3334 26C13.7015 26 14 26.2985 14 26.6667Z" stroke="#34607F" stroke-width="2"/>
<path d="M27.3333 26.6667C27.3333 27.0349 27.0349 27.3333 26.6667 27.3333C26.2985 27.3333 26 27.0349 26 26.6667C26 26.2985 26.2985 26 26.6667 26C27.0349 26 27.3333 26.2985 27.3333 26.6667Z" stroke="#34607F" stroke-width="2"/>
</svg>
