<svg width="49" height="49" viewBox="0 0 49 49" fill="none" xmlns="http://www.w3.org/2000/svg">
<path d="M10.243 46.75V42.5833L2.94588 33.3083C2.36549 32.5702 2.04908 31.6534 2.04858 30.7083V18.625C2.04858 17.7962 2.37234 17.0013 2.94862 16.4153C3.5249 15.8292 4.30651 15.5 5.1215 15.5V15.5C5.93649 15.5 6.7181 15.8292 7.29438 16.4153C7.87066 17.0013 8.19442 17.7962 8.19442 18.625V25.0542" stroke="#EEEEEE" stroke-width="3" stroke-miterlimit="10" stroke-linecap="square"/>
<path d="M20.4861 46.75V35.975C20.4859 34.87 20.0541 33.8104 19.2856 33.0292L12.2917 25.9167C11.7481 25.3645 11.0113 25.0544 10.2431 25.0544C9.47482 25.0544 8.73799 25.3645 8.19445 25.9167V25.9167C7.65152 26.4694 7.34656 27.2187 7.34656 28C7.34656 28.7813 7.65152 29.5306 8.19445 30.0833L14.3403 36.3333" stroke="#EEEEEE" stroke-width="3" stroke-miterlimit="10" stroke-linecap="square"/>
<path d="M38.9236 46.75V42.5833L46.2207 33.3083C46.8011 32.5702 47.1175 31.6534 47.118 30.7083V18.625C47.118 17.7962 46.7943 17.0013 46.218 16.4153C45.6417 15.8292 44.8601 15.5 44.0451 15.5V15.5C43.2301 15.5 42.4485 15.8292 41.8722 16.4153C41.2959 17.0013 40.9722 17.7962 40.9722 18.625V25.0542" stroke="#EEEEEE" stroke-width="3" stroke-miterlimit="10" stroke-linecap="square"/>
<path d="M28.6805 46.75V35.975C28.6808 34.87 29.1126 33.8104 29.881 33.0292L36.875 25.9167C37.4185 25.3645 38.1554 25.0544 38.9236 25.0544C39.6918 25.0544 40.4287 25.3645 40.9722 25.9167V25.9167C41.5151 26.4694 41.8201 27.2187 41.8201 28C41.8201 28.7813 41.5151 29.5306 40.9722 30.0833L34.8264 36.3333" stroke="#EEEEEE" stroke-width="3" stroke-miterlimit="10" stroke-linecap="square"/>
<path d="M18.4375 13.4167C18.4375 9.45833 24.5833 3 24.5833 3C24.5833 3 30.7292 9.45833 30.7292 13.4167C30.7292 15.0743 30.0817 16.664 28.9291 17.8361C27.7765 19.0082 26.2133 19.6667 24.5833 19.6667C22.9534 19.6667 21.3901 19.0082 20.2376 17.8361C19.085 16.664 18.4375 15.0743 18.4375 13.4167Z" stroke="#09ADBB" stroke-width="3" stroke-miterlimit="10" stroke-linecap="square"/>
</svg>
