<svg width="209" height="50" viewBox="0 0 209 50" fill="none" xmlns="http://www.w3.org/2000/svg">
<path d="M87.8 4.2L83.39 15.87L78.2 3.84H76.85L71.66 15.87L67.25 4.2H62.75L70.67 24.36H71.99L77.54 11.97L83.06 24.36H84.38L92.3 4.2H87.8ZM104.109 3.84C98.2888 3.84 93.6088 8.28 93.6088 14.1C93.6088 19.92 98.2888 24.36 104.109 24.36C109.929 24.36 114.669 19.92 114.669 14.1C114.669 8.28 109.929 3.84 104.109 3.84ZM104.139 7.59C107.769 7.59 110.499 10.29 110.499 14.1C110.499 17.94 107.769 20.61 104.139 20.61C100.449 20.61 97.7788 17.94 97.7788 14.1C97.7788 10.29 100.449 7.59 104.139 7.59ZM130.908 4.2V15.99L119.418 3.84H118.098V24H122.148V12.12L133.608 24.36H134.958V4.2H130.908ZM145.965 4.2H139.485V24H145.965C152.325 24 156.765 19.89 156.765 14.04C156.765 8.1 152.325 4.2 145.965 4.2ZM145.935 7.86C149.925 7.86 152.595 10.14 152.595 14.04C152.595 17.85 149.925 20.34 145.935 20.34H143.535V7.86H145.935ZM173.518 4.2H160.198V24H173.878V20.34H164.248V15.33H171.058V11.88H164.248V7.86H173.518V4.2ZM194.105 24L188.495 16.2C190.625 15.15 191.975 13.14 191.975 10.59C191.975 6.72 189.005 4.2 184.835 4.2H177.395V24H181.445V17.01H184.415L189.545 24H194.105ZM181.445 7.77H184.835C186.725 7.77 187.835 8.94 187.835 10.59C187.835 12.3 186.725 13.44 184.835 13.44H181.445V7.77Z" fill="#EEEEEE"/>
<path d="M87.8 28.2L83.39 39.87L78.2 27.84H76.85L71.66 39.87L67.25 28.2H62.75L70.67 48.36H71.99L77.54 35.97L83.06 48.36H84.38L92.3 28.2H87.8ZM104.109 27.84C98.2888 27.84 93.6088 32.28 93.6088 38.1C93.6088 43.92 98.2888 48.36 104.109 48.36C109.929 48.36 114.669 43.92 114.669 38.1C114.669 32.28 109.929 27.84 104.109 27.84ZM104.139 31.59C107.769 31.59 110.499 34.29 110.499 38.1C110.499 41.94 107.769 44.61 104.139 44.61C100.449 44.61 97.7788 41.94 97.7788 38.1C97.7788 34.29 100.449 31.59 104.139 31.59ZM134.808 48L129.198 40.2C131.328 39.15 132.678 37.14 132.678 34.59C132.678 30.72 129.708 28.2 125.538 28.2H118.098V48H122.148V41.01H125.118L130.248 48H134.808ZM122.148 31.77H125.538C127.428 31.77 128.538 32.94 128.538 34.59C128.538 36.3 127.428 37.44 125.538 37.44H122.148V31.77ZM141.338 28.2H137.288V48H150.008V44.34H141.338V28.2ZM159.5 28.2H153.02V48H159.5C165.86 48 170.3 43.89 170.3 38.04C170.3 32.1 165.86 28.2 159.5 28.2ZM159.47 31.86C163.46 31.86 166.13 34.14 166.13 38.04C166.13 41.85 163.46 44.34 159.47 44.34H157.07V31.86H159.47Z" fill="#09ADBB"/>
<path d="M10.243 46.75V42.5833L2.94588 33.3083C2.36549 32.5702 2.04908 31.6534 2.04858 30.7083V18.625C2.04858 17.7962 2.37234 17.0013 2.94862 16.4153C3.5249 15.8292 4.30651 15.5 5.1215 15.5V15.5C5.93649 15.5 6.7181 15.8292 7.29438 16.4153C7.87066 17.0013 8.19442 17.7962 8.19442 18.625V25.0542" stroke="#EEEEEE" stroke-width="3" stroke-miterlimit="10" stroke-linecap="square"/>
<path d="M20.4861 46.75V35.975C20.4859 34.87 20.0541 33.8104 19.2856 33.0292L12.2917 25.9167C11.7481 25.3645 11.0113 25.0544 10.2431 25.0544C9.47482 25.0544 8.73799 25.3645 8.19445 25.9167V25.9167C7.65152 26.4694 7.34656 27.2187 7.34656 28C7.34656 28.7813 7.65152 29.5306 8.19445 30.0833L14.3403 36.3333" stroke="#EEEEEE" stroke-width="3" stroke-miterlimit="10" stroke-linecap="square"/>
<path d="M38.9236 46.75V42.5833L46.2207 33.3083C46.8011 32.5702 47.1175 31.6534 47.118 30.7083V18.625C47.118 17.7962 46.7943 17.0013 46.218 16.4153C45.6417 15.8292 44.8601 15.5 44.0451 15.5V15.5C43.2301 15.5 42.4485 15.8292 41.8722 16.4153C41.2959 17.0013 40.9722 17.7962 40.9722 18.625V25.0542" stroke="#EEEEEE" stroke-width="3" stroke-miterlimit="10" stroke-linecap="square"/>
<path d="M28.6805 46.75V35.975C28.6808 34.87 29.1126 33.8104 29.881 33.0292L36.875 25.9167C37.4185 25.3645 38.1554 25.0544 38.9236 25.0544C39.6918 25.0544 40.4287 25.3645 40.9722 25.9167V25.9167C41.5151 26.4694 41.8201 27.2187 41.8201 28C41.8201 28.7813 41.5151 29.5306 40.9722 30.0833L34.8264 36.3333" stroke="#EEEEEE" stroke-width="3" stroke-miterlimit="10" stroke-linecap="square"/>
<path d="M18.4375 13.4167C18.4375 9.45833 24.5833 3 24.5833 3C24.5833 3 30.7292 9.45833 30.7292 13.4167C30.7292 15.0743 30.0817 16.664 28.9291 17.8361C27.7765 19.0082 26.2133 19.6667 24.5833 19.6667C22.9534 19.6667 21.3901 19.0082 20.2376 17.8361C19.085 16.664 18.4375 15.0743 18.4375 13.4167Z" stroke="#09ADBB" stroke-width="3" stroke-miterlimit="10" stroke-linecap="square"/>
</svg>
