<svg width="40" height="40" viewBox="0 0 40 40" fill="none" xmlns="http://www.w3.org/2000/svg">
<path d="M26.1783 16.6783L30.7517 5.26167C30.9018 4.88812 31.1242 4.54783 31.4059 4.26027C31.6877 3.97271 32.0234 3.7435 32.3938 3.58577C32.7642 3.42804 33.1621 3.34487 33.5647 3.34102C33.9673 3.33717 34.3666 3.41272 34.74 3.56334C34.8185 3.59367 34.8952 3.62816 34.97 3.66667V3.66667C35.3298 3.84732 35.6504 4.09706 35.9136 4.40164C36.1768 4.70621 36.3774 5.05965 36.504 5.44178C36.6306 5.8239 36.6807 6.22722 36.6514 6.6287C36.6221 7.03018 36.5141 7.42196 36.3333 7.78167C36.2967 7.85667 36.2567 7.92834 36.2133 8L30.505 17.4167" stroke="#34607F" stroke-width="2" stroke-miterlimit="10"/>
<path d="M1.66669 28.3333H38.3334" stroke="#34607F" stroke-width="2" stroke-miterlimit="10" stroke-linecap="square"/>
<path d="M36.6667 28.3333L35.8484 30.38C35.1062 32.2358 33.8249 33.8266 32.1699 34.9472C30.5149 36.0678 28.5621 36.6667 26.5634 36.6667H13.4367C11.438 36.6667 9.48518 36.0678 7.83016 34.9472C6.17514 33.8266 4.89389 32.2358 4.15171 30.38L3.33337 28.3333" stroke="#34607F" stroke-width="2" stroke-miterlimit="10"/>
<path d="M19 10V12.2063C18.314 12.0292 17.6811 11.6713 17.1716 11.1618C16.4214 10.4116 16 9.3942 16 8.33333V6.12701C16.686 6.30416 17.3189 6.66203 17.8284 7.17157C18.5786 7.92172 19 8.93913 19 10Z" stroke="#34607F" stroke-width="2"/>
<path d="M5 23.3333C5 19.6516 8.73167 16.6666 13.3333 16.6666C14.567 16.6384 15.7936 16.86 16.9393 17.3183C18.085 17.7766 19.1262 18.462 20 19.3333" stroke="#34607F" stroke-width="2" stroke-miterlimit="10"/>
<path d="M18.3334 23.3334C18.3334 19.6517 22.065 16.6667 26.6667 16.6667C31.2684 16.6667 35 19.6517 35 23.3334" stroke="#34607F" stroke-width="2" stroke-miterlimit="10"/>
</svg>
