<svg width="368" height="208" viewBox="0 0 368 208" fill="none" xmlns="http://www.w3.org/2000/svg">
<g filter="url(#filter0_b)">
<path fill-rule="evenodd" clip-rule="evenodd" d="M26.2969 54.3725L38.9246 15.028L51.4767 54.3725H58.8113L76.8832 1.20828H67.7338L55.1062 40.9304L42.2517 1.13276H35.6732L22.8187 40.9304L10.191 1.20828H0.890384L18.8867 54.3725H26.2969ZM92.7623 54.0704V16.9914H84.5959V54.0704H92.7623ZM88.6791 10.3459C91.4769 10.3459 93.7453 8.15588 93.7453 5.2107C93.7453 2.26552 91.4769 0 88.6791 0C85.7301 0 83.5373 2.26552 83.5373 5.2107C83.5373 8.15588 85.7301 10.3459 88.6791 10.3459ZM112.876 54.0704V31.3397C114.615 27.4883 119.227 24.09 125.05 24.09C125.882 24.09 126.638 24.1656 127.318 24.2411V16.0852C127.091 16.0097 126.865 16.0097 126.562 16.0097C120.815 16.0097 115.371 19.1059 112.876 23.4104V16.9914H104.709V54.0704H112.876ZM131.704 35.4932C131.704 41.308 133.67 45.9901 137.602 49.6149C141.609 53.2397 146.449 55.0522 152.195 55.0522C157.942 55.0522 162.479 53.8439 165.882 51.4273V44.5552C162.177 46.7453 158.245 47.878 153.935 47.878C146.373 47.878 140.929 44.1777 139.946 37.9097H168.377V35.7952C168.377 29.0742 166.033 22.9573 160.513 19.0304C157.791 16.9914 154.54 16.0097 150.759 16.0097C145.088 16.0097 140.551 17.8976 136.997 21.598C133.443 25.2983 131.704 29.9804 131.704 35.4932ZM140.022 31.7173C140.551 26.8842 144.407 22.8818 150.381 22.8818C153.405 22.8818 155.749 23.788 157.489 25.6004C159.228 27.4128 160.059 29.4518 160.135 31.7173H140.022ZM186.525 55.0522C188.944 55.0522 190.986 54.6746 192.574 53.8439V46.8208C191.666 47.3494 190.608 47.5759 189.474 47.5759C186.751 47.5759 185.39 46.0656 185.39 43.0449V1.20828H177.224V45.3104C177.224 52.3335 181.156 55.0522 186.525 55.0522ZM197.338 35.4932C197.338 41.308 199.303 45.9901 203.235 49.6149C207.243 53.2397 212.082 55.0522 217.829 55.0522C223.576 55.0522 228.113 53.8439 231.515 51.4273V44.5552C227.81 46.7453 223.878 47.878 219.568 47.878C212.007 47.878 206.563 44.1777 205.58 37.9097H234.011V35.7952C234.011 29.0742 231.667 22.9573 226.147 19.0304C223.425 16.9914 220.173 16.0097 216.392 16.0097C210.721 16.0097 206.184 17.8976 202.631 21.598C199.077 25.2983 197.338 29.9804 197.338 35.4932ZM205.655 31.7173C206.184 26.8842 210.041 22.8818 216.014 22.8818C219.039 22.8818 221.383 23.788 223.122 25.6004C224.861 27.4128 225.693 29.4518 225.769 31.7173H205.655ZM256.09 55.0522C265.769 55.0522 272.272 50.5211 272.272 43.8001C272.272 37.9097 268.037 33.9828 259.568 32.0949L255.258 31.1887C254.275 30.8866 252.536 30.4335 251.705 30.0559C250.343 29.3763 249.36 28.5456 249.36 27.1107C249.36 24.6942 251.931 23.0328 256.998 23.0328C261.459 23.0328 265.92 24.3166 270.381 26.8087V19.3324C266.979 17.1424 262.366 16.0097 256.695 16.0097C246.79 16.0097 240.967 20.1631 240.967 26.8842C240.967 33.3032 244.975 36.3239 253.444 38.4383L258.056 39.5711C259.19 39.8732 260.778 40.3263 261.61 40.7039C262.971 41.3835 263.879 42.2142 263.879 43.649C263.879 46.3677 260.854 48.029 255.712 48.029C249.965 48.029 244.899 46.5187 240.589 43.5735V51.2763C243.841 53.4663 249.814 55.0522 256.09 55.0522ZM294.427 55.0522C304.106 55.0522 310.608 50.5211 310.608 43.8001C310.608 37.9097 306.374 33.9828 297.905 32.0949L293.595 31.1887C292.612 30.8866 290.873 30.4335 290.041 30.0559C288.68 29.3763 287.697 28.5456 287.697 27.1107C287.697 24.6942 290.268 23.0328 295.334 23.0328C299.796 23.0328 304.257 24.3166 308.718 26.8087V19.3324C305.315 17.1424 300.703 16.0097 295.032 16.0097C285.126 16.0097 279.304 20.1631 279.304 26.8842C279.304 33.3032 283.311 36.3239 291.78 38.4383L296.393 39.5711C297.527 39.8732 299.115 40.3263 299.947 40.7039C301.308 41.3835 302.215 42.2142 302.215 43.649C302.215 46.3677 299.191 48.029 294.049 48.029C288.302 48.029 283.236 46.5187 278.926 43.5735V51.2763C282.177 53.4663 288.151 55.0522 294.427 55.0522ZM323.236 54.6746C326.185 54.6746 328.529 52.3335 328.529 49.3128C328.529 46.3677 326.034 44.0266 323.236 44.0266C320.211 44.0266 317.867 46.3677 317.867 49.3128C317.867 52.3335 320.211 54.6746 323.236 54.6746ZM41.9492 123.295V115.667H11.6277V98.9026H35.5219V91.2753H11.6277V78.0598H40.9662V70.4325H3.31006V123.295H41.9492ZM61.6846 93.3898H78.8492V123.295H87.0156V93.3898H99.1896V86.2157H87.0156V82.8174C87.0156 78.815 88.906 76.776 92.7623 76.776C94.6527 76.776 96.8455 77.2291 99.1896 78.1353V71.2632C96.6187 70.206 93.7453 69.6774 90.4939 69.6774C82.9324 69.6774 78.8492 74.3594 78.8492 81.3826V86.2157H61.6846V82.8174C61.6846 78.815 63.575 76.776 67.4314 76.776C69.3217 76.776 71.5146 77.2291 73.8586 78.1353V71.2632C71.2877 70.206 68.4144 69.6774 65.1629 69.6774C57.6014 69.6774 53.5183 74.3594 53.5183 81.3826V86.2157H46.5617V93.3898H53.5183V123.295H61.6846V93.3898ZM123.235 117.102C119.681 117.102 116.808 115.894 114.464 113.553C112.12 111.212 110.985 108.267 110.985 104.717C110.985 101.244 112.12 98.2984 114.464 95.9574C116.808 93.6164 119.757 92.4081 123.235 92.4081C126.713 92.4081 129.587 93.6164 131.931 95.9574C134.275 98.2984 135.409 101.244 135.409 104.717C135.409 108.267 134.275 111.212 131.931 113.553C129.587 115.894 126.713 117.102 123.235 117.102ZM123.235 124.276C129.133 124.276 133.972 122.388 137.829 118.613C141.685 114.761 143.575 110.155 143.575 104.717C143.575 99.2802 141.685 94.6736 137.829 90.8977C133.972 87.1219 129.133 85.2339 123.235 85.2339C117.261 85.2339 112.422 87.1219 108.566 90.8977C104.709 94.6736 102.819 99.2802 102.819 104.717C102.819 110.23 104.709 114.837 108.566 118.613C112.422 122.388 117.261 124.276 123.235 124.276ZM160.362 123.295V100.564C162.101 96.7126 166.714 93.3143 172.536 93.3143C173.368 93.3143 174.124 93.3898 174.804 93.4653V85.3094C174.577 85.2339 174.351 85.2339 174.048 85.2339C168.301 85.2339 162.857 88.3301 160.362 92.6346V86.2157H152.196V123.295H160.362ZM187.961 113.175C187.961 120.425 192.347 124.276 199.304 124.276C203.009 124.276 205.806 123.672 207.546 122.464V115.441C205.806 116.347 203.992 116.8 201.95 116.8C198.018 116.8 196.128 115.063 196.128 110.834V93.3898H207.848V86.2157H196.128V75.4167H187.961V86.2157H180.022V93.3898H187.961V113.175ZM225.995 124.276C228.415 124.276 230.457 123.899 232.045 123.068V116.045C231.137 116.574 230.079 116.8 228.944 116.8C226.222 116.8 224.861 115.29 224.861 112.269V70.4325H216.695V114.535C216.695 121.558 220.627 124.276 225.995 124.276ZM236.808 104.717C236.808 110.532 238.774 115.214 242.706 118.839C246.714 122.464 251.553 124.276 257.3 124.276C263.047 124.276 267.584 123.068 270.986 120.652V113.779C267.281 115.969 263.349 117.102 259.039 117.102C251.478 117.102 246.033 113.402 245.05 107.134H273.482V105.019C273.482 98.2984 271.138 92.1815 265.618 88.2546C262.896 86.2157 259.644 85.2339 255.863 85.2339C250.192 85.2339 245.655 87.1219 242.101 90.8222C238.548 94.5226 236.808 99.2046 236.808 104.717ZM245.126 100.942C245.655 96.1084 249.512 92.106 255.485 92.106C258.51 92.106 260.854 93.0122 262.593 94.8246C264.332 96.6371 265.164 98.676 265.24 100.942H245.126ZM295.561 124.276C305.24 124.276 311.743 119.745 311.743 113.024C311.743 107.134 307.508 103.207 299.039 101.319L294.729 100.413C293.746 100.111 292.007 99.6577 291.175 99.2802C289.814 98.6005 288.831 97.7698 288.831 96.335C288.831 93.9184 291.402 92.257 296.468 92.257C300.93 92.257 305.391 93.5408 309.852 96.0329V88.5567C306.45 86.3667 301.837 85.2339 296.166 85.2339C286.26 85.2339 280.438 89.3874 280.438 96.1084C280.438 102.527 284.446 105.548 292.915 107.663L297.527 108.795C298.661 109.097 300.249 109.551 301.081 109.928C302.442 110.608 303.349 111.438 303.349 112.873C303.349 115.592 300.325 117.253 295.183 117.253C289.436 117.253 284.37 115.743 280.06 112.798V120.501C283.311 122.691 289.285 124.276 295.561 124.276ZM333.898 124.276C343.576 124.276 350.079 119.745 350.079 113.024C350.079 107.134 345.845 103.207 337.376 101.319L333.066 100.413C332.083 100.111 330.344 99.6577 329.512 99.2802C328.151 98.6005 327.168 97.7698 327.168 96.335C327.168 93.9184 329.739 92.257 334.805 92.257C339.266 92.257 343.728 93.5408 348.189 96.0329V88.5567C344.786 86.3667 340.174 85.2339 334.503 85.2339C324.597 85.2339 318.775 89.3874 318.775 96.1084C318.775 102.527 322.782 105.548 331.251 107.663L335.864 108.795C336.998 109.097 338.586 109.551 339.418 109.928C340.779 110.608 341.686 111.438 341.686 112.873C341.686 115.592 338.661 117.253 333.52 117.253C327.773 117.253 322.707 115.743 318.397 112.798V120.501C321.648 122.691 327.622 124.276 333.898 124.276ZM362.707 123.899C365.656 123.899 368 121.558 368 118.537C368 115.592 365.505 113.251 362.707 113.251C359.682 113.251 357.338 115.592 357.338 118.537C357.338 121.558 359.682 123.899 362.707 123.899ZM11.6277 192.519V152.344L26.3726 172.28H31.2119L45.9568 152.344V192.519H54.2744V139.657H45.9568L28.9435 163.445L11.7789 139.657H3.31006V192.519H11.6277ZM101.156 186.175C99.3408 186.175 98.0553 184.816 98.0553 182.475V168.655C98.0553 159.593 91.1744 154.458 80.8908 154.458C75.5221 154.458 71.0609 155.515 67.3558 157.63V164.804C70.9097 162.614 74.8416 161.481 79.076 161.481C86.3351 161.481 89.9646 164.2 89.9646 169.562V171.601C86.5619 169.713 82.5543 168.731 78.093 168.731C73.9342 168.731 70.3803 169.788 67.507 171.978C64.6336 174.093 63.1969 177.113 63.1969 181.04C63.1969 184.892 64.4824 187.988 67.1289 190.178C69.7754 192.368 73.1025 193.501 77.1101 193.501C82.8568 193.501 87.3937 191.613 90.7963 187.761C91.7793 191.311 94.4258 193.048 98.5847 193.048C100.626 193.048 102.214 192.67 103.348 191.839V185.647C102.668 186.024 101.987 186.175 101.156 186.175ZM89.9646 182.022C87.6205 184.514 83.6129 186.478 79.3785 186.478C74.6148 186.478 71.3633 184.514 71.3633 180.587C71.3633 176.962 74.6148 174.848 80.059 174.848C83.5373 174.848 86.8644 175.754 89.9646 177.491V182.022ZM139.643 160.273C136.619 156.422 132.233 154.458 126.411 154.458C121.193 154.458 116.883 156.271 113.481 159.971C110.078 163.596 108.415 168.051 108.415 173.338C108.415 178.699 110.078 183.155 113.481 186.855C116.883 190.555 121.193 192.368 126.411 192.368C132.082 192.368 136.543 190.404 139.643 186.553V189.347C139.643 197.277 133.897 200.826 126.033 200.826C120.967 200.826 116.43 199.618 112.422 197.201V204.677C116.279 206.867 121.118 208 126.94 208C132.763 208 137.677 206.414 141.685 203.167C145.768 199.92 147.81 195.313 147.81 189.196V155.44H139.643V160.273ZM128.604 185.194C125.201 185.194 122.328 184.061 120.059 181.795C117.791 179.53 116.657 176.736 116.657 173.413C116.657 170.09 117.791 167.296 120.059 165.031C122.328 162.765 125.201 161.632 128.604 161.632C133.443 161.632 137.753 164.2 139.643 168.051V178.85C137.753 182.551 133.443 185.194 128.604 185.194ZM167.697 192.519V155.44H159.53V192.519H167.697ZM163.613 148.794C166.411 148.794 168.68 146.604 168.68 143.659C168.68 140.714 166.411 138.449 163.613 138.449C160.664 138.449 158.472 140.714 158.472 143.659C158.472 146.604 160.664 148.794 163.613 148.794ZM197.035 193.501C201.421 193.501 205.353 192.519 208.907 190.48V183.532C205.806 185.42 202.252 186.327 198.321 186.327C194.615 186.327 191.515 185.194 188.944 182.853C186.449 180.512 185.164 177.491 185.164 173.942C185.164 170.392 186.449 167.447 188.944 165.106C191.515 162.765 194.615 161.632 198.321 161.632C201.648 161.632 204.975 162.463 208.302 164.049V157.026C205.05 155.289 201.269 154.458 197.111 154.458C191.515 154.458 186.751 156.271 182.819 159.895C178.963 163.52 176.997 168.202 176.997 173.866C176.997 179.605 178.963 184.288 182.819 187.988C186.751 191.688 191.515 193.501 197.035 193.501ZM253.444 186.175C251.629 186.175 250.343 184.816 250.343 182.475V168.655C250.343 159.593 243.463 154.458 233.179 154.458C227.81 154.458 223.349 155.515 219.644 157.63V164.804C223.198 162.614 227.13 161.481 231.364 161.481C238.623 161.481 242.253 164.2 242.253 169.562V171.601C238.85 169.713 234.842 168.731 230.381 168.731C226.222 168.731 222.668 169.788 219.795 171.978C216.922 174.093 215.485 177.113 215.485 181.04C215.485 184.892 216.771 187.988 219.417 190.178C222.064 192.368 225.391 193.501 229.398 193.501C235.145 193.501 239.682 191.613 243.084 187.761C244.067 191.311 246.714 193.048 250.873 193.048C252.914 193.048 254.502 192.67 255.637 191.839V185.647C254.956 186.024 254.275 186.175 253.444 186.175ZM242.253 182.022C239.909 184.514 235.901 186.478 231.667 186.478C226.903 186.478 223.651 184.514 223.651 180.587C223.651 176.962 226.903 174.848 232.347 174.848C235.825 174.848 239.152 175.754 242.253 177.491V182.022ZM272.65 193.501C275.069 193.501 277.111 193.123 278.699 192.292V185.269C277.792 185.798 276.733 186.024 275.599 186.024C272.877 186.024 271.516 184.514 271.516 181.493V139.657H263.349V183.759C263.349 190.782 267.281 193.501 272.65 193.501ZM289.814 193.123C292.763 193.123 295.107 190.782 295.107 187.761C295.107 184.816 292.612 182.475 289.814 182.475C286.79 182.475 284.446 184.816 284.446 187.761C284.446 190.782 286.79 193.123 289.814 193.123Z" fill="#14243B" fill-opacity="0.355667"/>
</g>
<defs>
<filter id="filter0_b" x="-11.8049" y="-12.6953" width="392.5" height="233.391" filterUnits="userSpaceOnUse" color-interpolation-filters="sRGB">
<feFlood flood-opacity="0" result="BackgroundImageFix"/>
<feGaussianBlur in="BackgroundImage" stdDeviation="6.34767"/>
<feComposite in2="SourceAlpha" operator="in" result="effect1_backgroundBlur"/>
<feBlend mode="normal" in="SourceGraphic" in2="effect1_backgroundBlur" result="shape"/>
</filter>
</defs>
</svg>
